<svg width="70" height="70" viewBox="0 0 70 70" fill="none" xmlns="http://www.w3.org/2000/svg">
<path d="M44.3731 13.596L56.4041 25.6271C56.91 26.1331 57.3114 26.7338 57.5852 27.3949C57.8591 28.056 58 28.7646 58 29.4801C58 30.1957 57.8591 30.9042 57.5852 31.5653C57.3114 32.2264 56.91 32.8271 56.4041 33.3331L35.379 54.3538L50.1464 54.3562C50.5853 54.3562 51.0094 54.5151 51.3402 54.8036C51.6709 55.0921 51.8861 55.4906 51.9457 55.9255L51.9627 56.1725C51.9627 56.6114 51.8037 57.0354 51.5152 57.3662C51.2268 57.697 50.8283 57.9121 50.3934 57.9718L50.1464 57.9888L29.7801 57.9912C29.0154 58.0348 28.2502 57.916 27.5348 57.6426C26.8194 57.3692 26.17 56.9474 25.6293 56.405L13.5959 44.3714C13.09 43.8654 12.6886 43.2647 12.4148 42.6036C12.1409 41.9425 12 41.234 12 40.5184C12 39.8028 12.1409 39.0943 12.4148 38.4332C12.6886 37.7721 13.09 37.1714 13.5959 36.6654L36.6673 13.596C37.1733 13.09 37.774 12.6886 38.4351 12.4148C39.0961 12.1409 39.8047 12 40.5202 12C41.2358 12 41.9443 12.1409 42.6054 12.4148C43.2665 12.6886 43.8672 13.09 44.3731 13.596ZM19.764 35.6313L16.1653 39.2349C15.8252 39.5754 15.6342 40.0371 15.6342 40.5184C15.6342 40.9997 15.8252 41.4614 16.1653 41.8019L28.1987 53.8355C28.5523 54.1891 29.0172 54.3683 29.4822 54.3683L29.5524 54.3562L29.6444 54.361C30.0682 54.3226 30.465 54.1366 30.7657 53.8355L34.3643 50.2344L19.764 35.6313ZM39.2343 16.163L22.3358 33.0619L36.9386 47.6649L53.8395 30.7661C54.0083 30.5974 54.1422 30.3971 54.2335 30.1767C54.3249 29.9562 54.3719 29.72 54.3719 29.4813C54.3719 29.2427 54.3249 29.0064 54.2335 28.786C54.1422 28.5656 54.0083 28.3653 53.8395 28.1966L41.8061 16.163C41.4656 15.8229 41.004 15.6318 40.5227 15.6318C40.0413 15.6318 39.5797 15.8229 39.2392 16.163" fill="black"/>
</svg>
