<svg width="70" height="70" viewBox="0 0 70 70" fill="none" xmlns="http://www.w3.org/2000/svg">
<path d="M54.2243 23.1062C55.3611 21.9962 55.9998 20.4906 56 18.9205C56.0002 17.3505 55.3619 15.8447 54.2254 14.7344C53.089 13.6241 51.5475 13.0002 49.9401 13C48.3327 12.9998 46.7911 13.6233 45.6544 14.7333L16.9602 42.7669C16.461 43.253 16.0918 43.8516 15.8852 44.5099L13.045 53.6493C12.9894 53.8309 12.9852 54.0239 13.0329 54.2076C13.0805 54.3914 13.1781 54.5591 13.3155 54.6931C13.4528 54.827 13.6247 54.9221 13.8129 54.9683C14.0011 55.0145 14.1986 55.0101 14.3845 54.9556L23.7435 52.1835C24.4168 51.9835 25.0296 51.6251 25.528 51.1398L54.2243 23.1062Z" stroke="black" stroke-width="3.5" stroke-linecap="round" stroke-linejoin="round"/>
<path d="M33 55C33 55 35.238 52.0495 38 51.5C42.2001 50.6644 44.258 56.087 48.5 55.5C52.3684 54.9647 56.5 49 56.5 49" stroke="black" stroke-width="3.5" stroke-linecap="round"/>
<path fill-rule="evenodd" clip-rule="evenodd" d="M20.3682 13.608C20.0729 12.7973 18.9271 12.7973 18.6318 13.608L17.2918 17.2918L13.608 18.6318C12.7973 18.9271 12.7973 20.0729 13.608 20.3682L17.2918 21.7082L18.6318 25.392C18.9271 26.2027 20.0729 26.2027 20.3682 25.392L21.7082 21.7082L25.392 20.3682C26.2027 20.0729 26.2027 18.9271 25.392 18.6318L21.7082 17.2918L20.3682 13.608Z" fill="black"/>
</svg>
