<svg xmlns="http://www.w3.org/2000/svg" id="_レイヤー_2" data-name="レイヤー 2" viewBox="0 0 250.67 101.41"><defs><style>.cls-7{stroke-miterlimit:10}.cls-10,.cls-11,.cls-12,.cls-13,.cls-14,.cls-15,.cls-16,.cls-17,.cls-18,.cls-20,.cls-21,.cls-22,.cls-7,.cls-9{stroke-linecap:round}.cls-10,.cls-11,.cls-12,.cls-13,.cls-15,.cls-18,.cls-22,.cls-24,.cls-26,.cls-27,.cls-29,.cls-31,.cls-7,.cls-9{fill:#fff}.cls-10,.cls-11,.cls-13,.cls-15,.cls-17,.cls-24,.cls-26,.cls-27,.cls-7,.cls-9{stroke:#fff}.cls-27,.cls-9{stroke-width:16px}.cls-11,.cls-24{stroke-width:12px}.cls-13,.cls-17,.cls-20{stroke-width:.5px}.cls-14,.cls-16,.cls-22,.cls-32{stroke:#f4bad4}.cls-16,.cls-17,.cls-20,.cls-21{fill:none}.cls-10,.cls-11,.cls-12,.cls-13,.cls-14,.cls-15,.cls-16,.cls-17,.cls-18,.cls-20,.cls-21,.cls-22,.cls-24,.cls-26,.cls-27,.cls-31,.cls-32,.cls-9{stroke-linejoin:round}.cls-10,.cls-26{stroke-width:10px}.cls-12,.cls-16,.cls-21,.cls-22{stroke-width:.75px}.cls-12,.cls-20,.cls-21{stroke:#88d1f5}.cls-14,.cls-32{stroke-width:13px}.cls-14,.cls-32,.cls-34{fill:#f4bad4}.cls-35{fill:#88d1f5}.cls-36{fill:#f1a4c6}.cls-18,.cls-31{stroke:#d3d3d4;stroke-width:14px}.cls-7{stroke-width:2px}</style></defs><g id="_レイヤー_1-2" data-name="レイヤー 1"><path d="M160.52 86.69c.53-3.82 1.02-8 1.39-11.73.41-4.35.78-8.93.62-12.97-2.64.16-5.79.57-9.43 1.46-.14 5.04-.27 8.2-.48 13.13-.47 4.36-.52 9.08-1.09 13.15l-10.83.91c.51-5.39.74-9.71.85-13.54.24-4.21.42-7.49.53-11.8-3.55.64-6.42 1.31-9.51 1.77l-1.17-10.5c3.16-.83 6.81-1.61 10.61-2.16.1-3.94-.08-8.58-.51-12.4l10.77-1.39c.31 3.83.58 7.79.55 11.79 1.73-.22 6.09-.66 10.44-1.11 4.66-.48 8.31-.77 10-.81 0 0 1.13 4.57.85 8.9-.24 4.69-.24 8.92-.73 12.19-.77 5.3-1.3 10.51-2.65 16.49l-10.22-1.4Zm46.95-15.74c3.88.47 10 1.36 12.82 1.94l2.4-12.67c-3.19-.59-6.8-1.19-11-1.91l1.87-8.14c9.68 1.42 19.34 3.32 29.11 5.55l-1.66 7.69c-3.42-.63-6.68-1.17-10.28-1.83l-2.4 12.67c4.39.99 8.2 1.51 11.72 2.28l-1.39 7.86c-10.93-1.95-21.68-3.87-32.63-6.02l1.43-7.42Z" class="cls-27"/><path d="M98.09 77.41c.2-16.49-.22-33.09.1-49.39l11.64-.66c.22 6.81.43 13.13.75 18.21 4.03.44 14.48 3.33 18.66 5.06.11 3.47-.03 6.63-.23 9.73-4.6-.74-13.98-2.47-18.69-2.77-.06 8.61-.3 13.95-.28 19.21l-11.95.6Z" class="cls-9"/><path d="m120.61 32.45-1.77 3.71-3.7-1.77m16.26-1.08-1.77 3.71-3.71-1.77" class="cls-9"/><path d="M73.12 72.99c-3.03 2.11-9.45 5.52-11.53 6.98l-4.54-8.02c7.48-4.6 11.95-7.75 17.29-11.89 4.64-3.67 9.97-8.14 13.95-12.28l7.14 6.35c-2.86 3.88-7.99 8.1-11.45 11.47l.13 1.27c-.6 4.74-2.5 22.52-3.24 26.53l-9.98-.72c.8-6.47 1.73-13.04 2.23-19.71Z" class="cls-27"/><path fill="#fff" stroke="#fff" stroke-linecap="round" stroke-miterlimit="10" stroke-width="16" d="M210.47 36.54s-.91 6.03-1.48 7.97-2.98 7.2-2.98 7.2m-1.38 2.42h0"/><path d="M181.94 68.68c3-4.02 6.06-8.16 9.18-12.6 3.12-4.56 6.78-10.14 8.7-14.52-12 .24-22.32.72-31.8 1.08l.12-10.68c7.74-.78 15.78-.96 23.46-1.14 7.32-.18 14.58-.18 21.66-.18.3 3.54.54 7.2-.06 10.98-2.82 6.18-5.76 12.48-9.36 18.3-3.66 5.82-8.64 12-12.96 17.1l-8.94-8.34Z" class="cls-27"/><path d="M168.64 31.84c5.83-.39 5.8-.44 8.55-.54 6.26-.24 6.18-.26 13.38-.4 5.28-.1 5.28-.23 12.85-.33 8.76-.11 9.28-.76 9.39.8q-.24-3.21-1.48-6.71-.57-1.63-1.22-1.83c-2.19-.71-4.66 5.89-4.86 5.69-.98-1.02 3.34-12.93-1.68-14.26-6.28-1.66-4.38 11.91-6.1 11.37-4.85-1.51.36-14.5-7.12-14.54-7.4-.04-3.41 12.57-7.76 14.08-1.85.65.68-12.56-4.53-11.54-5.38 1.06-3.12 15.71-3.8 15.73-.51.01-2-6.88-3.74-6.85-.42 0-.68.13-1.16 1.72-.49 1.65-.68 2.71-.73 7.62Z" class="cls-9"/><path d="M174.48 17.48s-.89 1.87-2.08 3.1c-1.02 1.06-2.49 1.49-2.45 1.51.64.38 1.21.97 2.1 2.3.92 1.38 1.94 3.37 2.02 3.29.11-.11-.02-2.39-.04-5.88-.02-2.65.47-4.3.46-4.32Zm32.01 1.18s-.21 1.64.76 2.92c.73.98 2.26.78 2.22.8-1.09.51-1.16 1.18-2.06 2.5-.92 1.36-2.29 3.27-2.36 3.19-.1-.11.74-1.74.85-5.23.09-2.65.57-4.16.59-4.19Zm-19.26-6.98c-.7.18-.8.91-4.13 2.56-1.21.6-3.31-.97-3.27-.84.28.97 2.09 5 2.06 6.6-.06 3.5.61 6.16.72 4.83.01-.15 2.01.06 2.58-7.47.33-4.31 2.06-5.7 2.04-5.69Zm6.06-.06c1.06.95 2.05 2.37 3.99 3.12 1.42.55 4.07-.91 3.94-.84-1.05.58-1.88 2.45-2.6 6.64-.59 3.45-.78 4.71-1.07 4.81-.24.08-2.33 0-2.79-7.54-.26-4.32-1.5-6.22-1.47-6.19ZM23.13 78.34c2.05-2.86 4.77-6.92 6.54-10.1 1.7-3.17 3.5-6.12 5.25-9.36-2.09-.59-10.54-3.49-13.64-4.66l4.13-9.97c3.07.63 10.82 2.91 13.51 3.41 1.68-3.29 3.21-6.8 4.67-10 1.41-3.13 2.46-6.14 3.32-9.67l10.64 2.14c-.88 3.41-2.02 7.83-3.19 10.92-1.32 3.3-2.81 6.68-3.95 9.95 3.16 1.22 9.38 2.64 12.74 3.95l-3.87 10.48c-2.83-.66-10.45-2.84-13.33-3.44-2.41 4.13-4.2 7.5-6.45 10.69-2.25 3.19-4.91 7.61-7.63 10.51l-8.75-4.86Z" class="cls-27"/><path d="M28.36 42.18c-.07-2.59 1.79-8.13 3.99-9.62.8-.54 5.07 2.38 5.07 2.38s-.62.81-1.54 2.08c-1.02 1.41-2.36 3.32-2.86 3.95-.94 1.2-3.07 3.69-3.07 3.69s-1.58-1.81-1.6-2.48Zm5.16-1.84 3.91-2.82s.52-2.24-.01-2.58m.01 2.58s1.26-.7 1.55-.49c.24.18.68 1.31 1.08 2.48.27.8.53 1.51.74 2.84.13.8-1.58 1.52-2.67 1.92-2.13.77-4.28.96-7.32 1.65-.4.09-.84-1.26-.84-1.26" class="cls-9"/><path d="M39.98 39.3s1.9-.01 5.19-1.9c2.51-1.44 2.35-1.4 2.35-1.4s-.48 1.46-.68 1.95c-.24.6-1.09 2.42-1.09 2.42s1.27.51 2.31.74c.74.16 3.01.34 3.01.34s-2.34 1.66-8.4 3.5c-8.71 2.63-11.93.7-11.93.7s1.76-.38 3.46-1.14 3.39-1.84 4.67-2.25c.96-.3 1.93.09 1.93.09m-12.44-.17s2.59-4.76 3.22-6.21c.87-2 .77-3.41.77-3.41m-7.25 12.1c-2.51-.67-8.32-.15-10.28 1.64-.71.65 1.13 5.49 1.13 5.49s.94-.41 2.38-1.01c1.61-.66 3.78-1.53 4.51-1.86 1.39-.63 4.3-2.13 4.3-2.13s-1.39-1.96-2.04-2.13Z" class="cls-9"/><path d="m22.11 49.25-3.65 3.15s-2.3-.02-2.51-.61m2.51.61s-1.06.98-.83 1.39c.25.46 1.11.96 2.16 1.62.71.45 1.35.87 2.59 1.38.75.31 1.85-1.18 2.49-2.15 1.25-1.89 1.92-3.94 3.31-6.74.18-.37-1.03-1.11-1.03-1.11" class="cls-9"/><path d="M19.6 55.3s-.46 1.85-3.06 4.6c-1.99 2.1-1.39 1.78-1.39 1.78s1.53-.13 2.06-.21c.64-.1 2.61-.49 2.61-.49s.2 1.36.18 2.42c-.01.76-.37 3.01-.37 3.01s1.64-1.71 4.83-7.18c4.59-7.86 3.45-11.44 3.45-11.44s-.78 1.62-1.92 3.09c-1.14 1.47-2.71 2.72-3.27 4.02-.4.93-.36 1.9-.36 1.9m-7.54-10.49s1.36.43 3.5.05c1.55-.28 6.78-1.69 6.78-1.69s.46-.89 1.35-1.6c1.06-.85 1.91-.89 1.91-.89m-.19 5.73s.73-.28 1.5-.89c.8-.63 1.13-1.1 1.13-1.1" class="cls-9"/><path fill="#fff" stroke="#fff" stroke-linejoin="round" stroke-width="11" d="M19.79 34.35c-.02.22-.11.49-.28.83-.17.33-.41.65-.71.96-.34.35-.7.6-1.07.76-.37.16-.7.19-.99.11-.43-.14-.98-.35-1.65-.62-.67-.27-1.41-.58-2.23-.94-.82-.36-1.65-.74-2.5-1.14-.85-.4-1.69-.81-2.49-1.23-.81-.42-1.53-.81-2.16-1.18-.01-.25.04-.53.16-.85s.31-.62.58-.89c.31-.32.64-.51.97-.57.34-.06.73.03 1.18.27 1.36.73 2.69 1.42 3.97 2.07 1.28.65 2.62 1.31 4 1.98l.07-.07c-.44-.85-.94-1.75-1.48-2.7-.54-.96-1.1-1.93-1.68-2.93-.58-1-1.16-1.97-1.76-2.9.07-.23.17-.45.3-.68.13-.22.3-.44.51-.65.32-.33.67-.53 1.03-.61.36-.08.71.05 1.03.37.19.19.45.54.77 1.05s.67 1.12 1.03 1.82c.37.7.74 1.45 1.11 2.23.37.78.72 1.53 1.04 2.26.32.73.59 1.38.81 1.96.22.58.36 1.01.43 1.3Zm2.04-12.29c.12.45.24.96.36 1.53s.26 1.16.4 1.77c.14.62.29 1.23.45 1.82l.66 1.79c.07.27.15.55.24.84.09.29.17.58.25.87.08.29.16.56.23.81s.14.49.21.71c-.12.12-.25.26-.39.4s-.33.29-.55.43c-.49.3-.92.44-1.29.43s-.66-.19-.87-.53c-.1-.15-.17-.32-.22-.5-.05-.18-.11-.39-.18-.63-.13-.45-.28-1.03-.45-1.76s-.36-1.5-.54-2.34c-.19-.84-.37-1.67-.56-2.51-.18-.83-.35-1.6-.49-2.3-.14-.7-.25-1.25-.32-1.65.11-.22.32-.48.62-.79.3-.31.63-.58.99-.8.51-.32 1.01-.53 1.5-.63.49-.1.89-.02 1.2.25.63.49 1.33 1.06 2.1 1.73.77.67 1.58 1.37 2.41 2.1.83.74 1.64 1.45 2.42 2.14.78.69 1.48 1.32 2.09 1.88-.03.22-.14.45-.33.7-.19.25-.45.48-.79.68-.5.31-.9.44-1.21.39s-.62-.22-.95-.51L27 26.71l-1.23-1.31c-.49-.44-.96-.87-1.43-1.28-.47-.41-.9-.8-1.31-1.17-.41-.37-.77-.69-1.09-.97l-.11.07Zm.66 5.22 4.18-2.58 1.66 1.89-5.59 3.45-.25-2.76Zm18.86-9.81 1.91 5.98c-.11.21-.31.41-.59.61-.28.19-.64.36-1.07.49-.45.14-.9.21-1.33.19-.43-.02-.85-.24-1.27-.66l-3.91-3.84c-.24-.26-.49-.51-.73-.76s-.47-.5-.7-.75c-.23-.25-.46-.51-.69-.77l-2.7 1.56-1.24-3.9c.1-.28.3-.54.59-.76.29-.23.64-.4 1.02-.52.45-.14.9-.21 1.34-.18s.86.24 1.26.66l3.94 3.86c.25.23.49.47.73.73s.47.51.7.77c.23.26.45.52.67.79l2.67-1.58-.61-1.9Zm-8.63.15c.23.54.45 1.09.66 1.64.21.55.39 1.09.56 1.61l.48 1.52 1.24 3.88c-.1.06-.27.15-.52.27s-.5.23-.77.31c-.57.18-1.01.21-1.32.09s-.54-.45-.7-.97l-2.38-7.46 2.75-.9Zm6.8 3.63c-.41-.96-.76-1.87-1.04-2.75-.29-.88-.56-1.72-.81-2.52l-1.08-3.38c.12-.07.31-.16.55-.29.24-.12.49-.22.76-.31.57-.18 1.01-.21 1.31-.09.3.13.53.45.69.97l2.37 7.44-2.75.92Zm8.58-8.29-6.42.78c-.1-.13-.2-.3-.29-.5-.1-.21-.16-.44-.19-.71-.05-.44 0-.79.18-1.03.17-.24.43-.38.76-.42l5.63-.68.33 2.56Zm0-.57 1.29 10.63c-.12.04-.32.1-.59.18-.27.08-.56.13-.85.17-.61.07-1.06.02-1.34-.17s-.46-.56-.52-1.1l-1.13-9.32 3.15-.38Zm-3.25-1.64 6.42-.78c.1.13.2.3.29.5.1.21.16.44.19.69.05.44 0 .79-.18 1.04-.17.25-.44.39-.78.43l-5.61.68-.33-2.56Zm13.06 2.19c-.18.44-.38.92-.62 1.44s-.48 1.08-.73 1.67c-.25.58-.49 1.16-.72 1.73l-.53 1.83c-.11.26-.21.53-.31.82-.1.29-.21.57-.31.85-.11.28-.21.54-.3.79s-.17.48-.25.7c-.17.03-.36.06-.56.09-.2.03-.43.04-.7.02-.57-.05-1-.19-1.29-.42s-.42-.55-.39-.94c.02-.18.05-.36.12-.54.06-.18.14-.38.23-.61.16-.44.39-1 .68-1.68s.61-1.42.95-2.21c.35-.79.69-1.57 1.04-2.35.35-.78.67-1.49.97-2.14.3-.65.54-1.16.73-1.52.22-.11.54-.2.97-.27.43-.07.85-.09 1.27-.05.6.05 1.13.18 1.58.39.45.21.73.51.82.91.22.76.44 1.64.66 2.64.23.99.45 2.04.69 3.12.23 1.09.46 2.14.67 3.16.22 1.02.4 1.94.56 2.76-.15.16-.38.28-.68.36-.3.09-.65.11-1.04.08-.59-.05-.99-.18-1.2-.41s-.36-.55-.46-.98l-.47-2.42-.21-1.79c-.13-.64-.26-1.27-.39-1.88-.13-.61-.25-1.18-.36-1.72-.11-.54-.21-1.01-.3-1.43h-.13Zm-2.57 4.59 4.9.41.21 2.5-6.55-.55 1.44-2.37Zm21.36 3.19-1.83 6.01c-.21.11-.49.17-.83.16-.34 0-.73-.07-1.16-.2-.46-.14-.86-.34-1.2-.6-.35-.26-.57-.68-.67-1.27l-1.04-5.39c-.05-.35-.11-.7-.17-1.04-.06-.34-.11-.68-.15-1.01-.04-.34-.09-.68-.13-1.03l-3.11-.24 1.19-3.92c.24-.18.55-.27.92-.29.37-.02.75.03 1.14.15.46.14.86.34 1.21.61s.57.69.66 1.25l1.05 5.41c.08.33.14.67.19 1.01.05.34.09.69.14 1.03.04.34.08.69.1 1.03l3.09.22.58-1.91Zm-7.19-4.78c-.12.58-.25 1.15-.39 1.72-.14.57-.3 1.12-.46 1.64l-.46 1.53-1.19 3.9c-.12 0-.31-.03-.58-.07s-.54-.1-.81-.18c-.58-.18-.95-.4-1.13-.67s-.19-.67-.03-1.19l2.28-7.49 2.78.82Zm3.53 6.85c.21-1.02.44-1.97.71-2.86.26-.89.52-1.73.76-2.53l1.03-3.39c.14.01.35.04.61.08.27.04.53.1.8.18.58.18.95.4 1.12.67.17.27.18.67.02 1.19l-2.28 7.47-2.78-.8Zm28.46 59.16c-.07.05-.16.1-.26.15s-.23.07-.37.08c-.19.01-.34 0-.47-.04-.13-.04-.21-.12-.26-.23-.24-.56-.44-1.02-.6-1.4-.16-.37-.29-.7-.39-.97h-.04c0 .38.01.73.02 1.05 0 .32.02.62.02.92 0 .29.02.6.02.91 0 .31.01.65.02 1.01-.07.02-.16.05-.27.07-.11.03-.21.05-.32.05-.23.01-.41-.01-.54-.08-.13-.07-.2-.2-.21-.39 0-.13-.01-.33-.02-.59v-4.12c.04-.07.14-.15.27-.24.14-.08.33-.13.59-.15.27-.02.49.01.65.09.17.08.29.21.38.4.1.22.21.46.33.74l.36.84c.12.28.23.54.33.78h.04c.14-.55.28-1.08.43-1.59.14-.51.27-.94.38-1.29.08-.05.18-.09.3-.12.13-.04.26-.06.41-.07.26-.02.47 0 .63.07.16.07.26.17.3.32.03.11.07.29.11.53s.09.52.14.84c.05.32.1.65.15 1 .05.35.1.69.15 1.01.05.33.09.62.12.89s.06.48.07.63c-.09.06-.18.1-.28.13-.1.03-.22.05-.37.06-.19.01-.35-.01-.49-.07-.14-.06-.23-.19-.25-.39-.05-.47-.1-.92-.14-1.34s-.08-.81-.12-1.17c-.03-.35-.06-.65-.09-.9h-.04c-.06.27-.15.6-.27 1-.12.4-.26.92-.43 1.55Zm4.93-3.39c.62-.04 1.12.06 1.51.3s.6.63.63 1.18l.12 2.04c0 .15-.02.27-.1.37s-.16.18-.27.26c-.17.12-.39.22-.65.29s-.56.12-.91.14c-.61.04-1.1-.05-1.48-.27-.38-.21-.58-.56-.61-1.03-.02-.41.08-.73.32-.96s.6-.39 1.1-.47l1.2-.2v-.11c-.02-.21-.11-.35-.28-.43-.17-.08-.39-.11-.68-.09-.23.01-.45.05-.67.12-.22.07-.41.15-.58.23-.08-.05-.14-.12-.19-.21-.05-.09-.08-.19-.09-.3-.02-.25.11-.44.37-.57.17-.08.37-.14.6-.19.23-.05.45-.08.67-.09Zm.27 3.59c.14 0 .27-.03.41-.07.13-.04.23-.08.29-.12l-.05-.86-.76.11c-.2.03-.36.09-.47.16-.11.08-.16.19-.16.33s.07.26.19.34c.12.08.3.11.56.1Zm2.69-4.88c-.01-.2.05-.38.18-.53.13-.15.31-.23.52-.24s.4.05.54.17c.15.13.23.3.24.5s-.05.37-.18.52c-.13.15-.3.23-.52.24s-.4-.05-.55-.18c-.15-.13-.23-.3-.24-.49Zm.31 3.86-.15-2.57c.06-.02.14-.04.25-.07.11-.02.22-.04.35-.05.25-.02.44.02.56.1.12.08.19.24.21.48l.12 2.03-1.33.08Zm1.29-.77.14 2.36c-.06.02-.14.03-.25.06-.11.02-.22.04-.35.05-.25.02-.44-.02-.56-.1-.12-.08-.19-.24-.2-.47l-.11-1.82 1.33-.08Zm3.8-1.63 1.32-.08.17 2.88c0 .14-.01.26-.07.36-.05.1-.14.2-.27.28-.16.12-.36.22-.62.32s-.55.15-.9.18c-.5.03-.93-.03-1.3-.17-.37-.15-.66-.38-.88-.71-.22-.33-.34-.74-.37-1.24s.04-.97.22-1.32c.18-.35.43-.62.76-.81.33-.19.7-.29 1.12-.32.22-.01.41 0 .58.04s.31.09.42.15l.07 1.1c-.09-.07-.2-.13-.34-.18-.14-.05-.3-.07-.48-.06-.22.01-.4.07-.56.16-.16.1-.27.24-.35.43-.08.19-.11.43-.09.73.03.42.14.72.34.91.2.19.47.27.79.25.14 0 .26-.03.35-.07s.18-.07.24-.11l-.16-2.71Zm.01.26-.14-2.34c.06-.02.14-.04.25-.07.11-.02.22-.04.34-.05.26-.02.45.02.57.1s.19.24.2.48l.11 1.8-1.33.08Zm115.58-34.06c-.03.13-.09.24-.18.33-.09.09-.19.15-.29.19-.13-.13-.28-.25-.45-.37-.17-.11-.38-.2-.63-.25-.32-.06-.6-.05-.86.04-.25.09-.47.25-.65.49-.18.24-.3.54-.38.91-.12.57-.06 1.03.17 1.38.23.35.58.58 1.07.68.26.05.49.06.68.03.2-.03.38-.08.55-.15.07.08.13.18.16.3.04.11.04.24.01.37-.02.12-.08.22-.16.3-.08.08-.2.15-.36.19-.12.04-.29.06-.51.08-.21.01-.47 0-.77-.07-.52-.11-.97-.3-1.35-.59-.38-.29-.66-.67-.82-1.14-.17-.47-.18-1.02-.06-1.66.12-.61.35-1.1.68-1.47.33-.37.72-.62 1.18-.76.46-.13.93-.15 1.43-.05.35.07.64.17.88.3.24.13.41.28.52.43.11.16.15.32.11.49Zm2.46.76c.61.12 1.06.35 1.38.68.31.33.42.76.31 1.3l-.41 2c-.03.15-.09.26-.19.33-.1.08-.2.14-.33.18-.2.07-.43.11-.71.11s-.58-.03-.91-.09c-.6-.12-1.05-.33-1.36-.64-.31-.3-.42-.69-.32-1.15.08-.4.27-.68.56-.85.29-.16.68-.22 1.18-.17l1.21.12.02-.11c.04-.21 0-.37-.15-.49s-.35-.21-.63-.27c-.22-.05-.45-.06-.68-.05-.23 0-.44.03-.62.08-.06-.07-.1-.15-.13-.26s-.03-.21 0-.31c.05-.25.22-.4.51-.46.18-.03.39-.04.63-.03.23.01.46.04.67.08Zm-.66 3.55c.14.03.27.04.41.04.14 0 .24-.02.31-.04l.17-.85-.76-.09c-.2-.02-.37-.01-.5.04s-.21.14-.24.28c-.03.15 0 .27.1.38.09.11.27.19.51.24Zm4.79-1.65-.67 3.34h-.25c-.11 0-.23-.02-.35-.04-.25-.05-.42-.13-.52-.24-.1-.11-.12-.28-.08-.51l.57-2.8 1.3.26Zm-.12.26-1.23-.25.25-1.24c.08-.39.23-.69.44-.89.21-.21.47-.34.78-.4.31-.06.63-.05.98.02.41.08.71.2.89.35s.25.35.2.59c-.02.1-.06.19-.12.26-.06.08-.13.13-.19.17-.1-.06-.21-.11-.34-.16s-.27-.1-.42-.13c-.28-.06-.5-.05-.66.02-.16.07-.27.23-.32.47l-.24 1.2Zm-.02-.89 1.72.35c.02.05.04.13.05.22s0 .19-.01.3c-.04.18-.1.3-.2.36-.1.07-.21.09-.36.06l-1.4-.28.2-1.01Zm2.7 2.15 2.27.1c.02-.17-.03-.34-.13-.51-.1-.16-.28-.27-.53-.32-.27-.05-.51-.01-.73.13-.21.14-.36.38-.43.72l-.09.61c0 .34.09.59.28.78.19.18.45.31.75.37.25.05.49.06.72.04.23-.02.42-.06.58-.12.07.07.13.16.17.26.04.11.05.21.03.32-.04.18-.14.31-.3.4-.16.09-.37.14-.63.15-.26 0-.54-.02-.85-.08-.45-.09-.84-.26-1.17-.5-.32-.24-.55-.56-.69-.94-.14-.38-.15-.83-.05-1.34.08-.38.2-.69.37-.94.17-.25.38-.45.62-.59.24-.14.5-.23.77-.26.27-.04.55-.03.83.03.4.08.74.24 1.01.46.27.22.46.49.58.8.12.31.14.65.06 1.01-.04.18-.11.31-.23.38-.12.07-.27.1-.45.1l-2.89-.15.13-.89Z"/><path d="M163.01 22.96c.12.28.08.86 0 1.15-.67 2.81-2.08 8.57-2.79 11.53-.09.36-.58 1.01-.92 1.15-2.02.85-6.94-.68-8.47-2.24-.24-.24-.32-1.02-.24-1.35.71-2.91 2.13-8.61 2.83-11.46.07-.29.47-.76.66-.99.51-.58 1.58-1.36 4.68-.59 3.13.77 3.68 1.43 4.25 2.79ZM53.79 76.08c.26.16.56.65.68.93 1.1 2.67 3.32 8.17 4.48 10.99.14.34.11 1.16-.08 1.47-1.14 1.87-6.02 3.51-8.18 3.14-.34-.06-.85-.64-.98-.96-1.13-2.77-3.3-8.23-4.4-10.95-.11-.28-.07-.89-.04-1.19.07-.77.49-2.02 3.45-3.22s3.82-.99 5.08-.22Z" class="cls-9"/><circle cx="219.33" cy="44.61" r="1.39" class="cls-9"/><circle cx="222.93" cy="40.96" r="1.93" class="cls-9"/><circle cx="69.22" cy="43.54" r="2.79" class="cls-9"/><circle cx="63.82" cy="48.26" r="1.93" class="cls-9"/><circle cx="57.91" cy="49.26" r="1.45" class="cls-9"/><circle cx="229.12" cy="38.6" r="2.91" class="cls-9"/><path d="M159.52 85.44c.53-3.82 1.02-8 1.39-11.73.41-4.35.78-8.93.62-12.97-2.64.16-5.79.57-9.43 1.46-.14 5.04-.27 8.2-.48 13.13-.47 4.36-.52 9.08-1.09 13.15l-10.83.91c.51-5.39.74-9.71.85-13.54.24-4.21.42-7.49.53-11.8-3.55.64-6.42 1.31-9.51 1.77l-1.17-10.5c3.16-.83 6.81-1.61 10.61-2.16.1-3.94-.08-8.58-.51-12.4l10.77-1.39c.31 3.83.58 7.79.55 11.79 1.73-.22 6.09-.66 10.44-1.11 4.66-.48 8.31-.77 10-.81 0 0 1.13 4.57.85 8.9-.24 4.69-.24 8.92-.73 12.19-.77 5.3-1.3 10.51-2.65 16.49l-10.22-1.4Zm46.95-15.74c3.88.47 10 1.36 12.82 1.94l2.4-12.67c-3.19-.59-6.8-1.19-11-1.91l1.87-8.14c9.68 1.42 19.34 3.32 29.11 5.55l-1.66 7.69c-3.42-.63-6.68-1.17-10.28-1.83L227.33 73c4.39.99 8.2 1.51 11.72 2.28l-1.39 7.86c-10.93-1.95-21.68-3.87-32.63-6.02l1.43-7.42Z" class="cls-31"/><path d="M97.09 76.16c.2-16.49-.22-33.09.1-49.39l11.64-.66c.22 6.81.43 13.13.75 18.21 4.03.44 14.48 3.33 18.66 5.06.11 3.47-.03 6.63-.23 9.73-4.6-.74-13.98-2.47-18.69-2.77-.06 8.61-.3 13.95-.28 19.21l-11.95.6Z" class="cls-18"/><path d="m119.61 31.2-1.77 3.71-3.7-1.77m16.26-1.08-1.77 3.71-3.71-1.77" class="cls-18"/><path d="M72.12 71.74c-3.03 2.11-9.45 5.52-11.53 6.98l-4.54-8.02c7.48-4.6 11.95-7.75 17.29-11.89 4.64-3.67 9.97-8.14 13.95-12.28l7.14 6.35c-2.86 3.88-7.99 8.1-11.45 11.47l.13 1.27c-.6 4.74-2.5 22.52-3.24 26.53l-9.98-.72c.8-6.47 1.73-13.04 2.23-19.71Z" class="cls-31"/><path fill="#fff" stroke="#d3d3d4" stroke-linecap="round" stroke-miterlimit="10" stroke-width="14" d="M209.47 35.29s-.91 6.03-1.48 7.97-2.98 7.2-2.98 7.2m-1.38 2.42h0"/><path d="M180.94 67.43c3-4.02 6.06-8.16 9.18-12.6 3.12-4.56 6.78-10.14 8.7-14.52-12 .24-22.32.72-31.8 1.08l.12-10.68c7.74-.78 15.78-.96 23.46-1.14 7.32-.18 14.58-.18 21.66-.18.3 3.54.54 7.2-.06 10.98-2.82 6.18-5.76 12.48-9.36 18.3-3.66 5.82-8.64 12-12.96 17.1l-8.94-8.34Z" class="cls-31"/><path d="M167.64 30.59c5.83-.39 5.8-.44 8.55-.54 6.26-.24 6.18-.26 13.38-.4 5.28-.1 5.28-.23 12.85-.33 8.76-.11 9.28-.76 9.39.8q-.24-3.21-1.48-6.71-.57-1.63-1.22-1.83c-2.19-.71-4.66 5.89-4.86 5.69-.98-1.02 3.34-12.93-1.68-14.26-6.28-1.66-4.38 11.91-6.1 11.37-4.85-1.51.36-14.5-7.12-14.54-7.4-.04-3.41 12.57-7.76 14.08-1.85.65.68-12.56-4.53-11.54-5.38 1.06-3.12 15.71-3.8 15.73-.51.01-2-6.88-3.74-6.85-.42 0-.68.13-1.16 1.72-.49 1.65-.68 2.71-.73 7.62Z" class="cls-18"/><path d="M173.48 16.23s-.89 1.87-2.08 3.1c-1.02 1.06-2.49 1.49-2.45 1.51.64.38 1.21.97 2.1 2.3.92 1.38 1.94 3.37 2.02 3.29.11-.11-.02-2.39-.04-5.88-.02-2.65.47-4.3.46-4.32Zm32.01 1.18s-.21 1.64.76 2.92c.73.98 2.26.78 2.22.8-1.09.51-1.16 1.18-2.06 2.5-.92 1.36-2.29 3.27-2.36 3.19-.1-.11.74-1.74.85-5.23.09-2.65.57-4.16.59-4.19Zm-19.26-6.98c-.7.18-.8.91-4.13 2.56-1.21.6-3.31-.97-3.27-.84.28.97 2.09 5 2.06 6.6-.06 3.5.61 6.16.72 4.83.01-.15 2.01.06 2.58-7.47.33-4.31 2.06-5.7 2.04-5.69Zm6.06-.06c1.06.95 2.05 2.37 3.99 3.12 1.42.55 4.07-.91 3.94-.84-1.05.58-1.88 2.45-2.6 6.64-.59 3.45-.78 4.71-1.07 4.81-.24.08-2.33 0-2.79-7.54-.26-4.32-1.5-6.22-1.47-6.19ZM22.13 77.09c2.05-2.86 4.77-6.92 6.54-10.1 1.7-3.17 3.5-6.12 5.25-9.36-2.09-.59-10.54-3.49-13.64-4.66L24.41 43c3.07.63 10.82 2.91 13.51 3.41 1.68-3.29 3.21-6.8 4.67-10 1.41-3.13 2.46-6.14 3.32-9.67l10.64 2.14c-.88 3.41-2.02 7.83-3.19 10.92-1.32 3.3-2.81 6.68-3.95 9.95 3.16 1.22 9.38 2.64 12.74 3.95l-3.87 10.48c-2.83-.66-10.45-2.84-13.33-3.44-2.41 4.13-4.2 7.5-6.45 10.69-2.25 3.19-4.91 7.61-7.63 10.51l-8.75-4.86Z" class="cls-31"/><path d="M27.36 40.93c-.07-2.59 1.79-8.13 3.99-9.62.8-.54 5.07 2.38 5.07 2.38s-.62.81-1.54 2.08c-1.02 1.41-2.36 3.32-2.86 3.95-.94 1.2-3.07 3.69-3.07 3.69s-1.58-1.81-1.6-2.48Zm5.16-1.84 3.91-2.82s.52-2.24-.01-2.58m.01 2.58s1.26-.7 1.55-.49c.24.18.68 1.31 1.08 2.48.27.8.53 1.51.74 2.84.13.8-1.58 1.52-2.67 1.92-2.13.77-4.28.96-7.32 1.65-.4.09-.84-1.26-.84-1.26" class="cls-18"/><path d="M38.98 38.05s1.9-.01 5.19-1.9c2.51-1.44 2.35-1.4 2.35-1.4s-.48 1.46-.68 1.95c-.24.6-1.09 2.42-1.09 2.42s1.27.51 2.31.74c.74.16 3.01.34 3.01.34s-2.34 1.66-8.4 3.5c-8.71 2.63-11.93.7-11.93.7s1.76-.38 3.46-1.14 3.39-1.84 4.67-2.25c.96-.3 1.93.09 1.93.09m-12.44-.17s2.59-4.76 3.22-6.21c.87-2 .77-3.41.77-3.41m-7.25 12.1c-2.51-.67-8.32-.15-10.28 1.64-.71.65 1.13 5.49 1.13 5.49s.94-.41 2.38-1.01c1.61-.66 3.78-1.53 4.51-1.86 1.39-.63 4.3-2.13 4.3-2.13s-1.39-1.96-2.04-2.13Z" class="cls-18"/><path d="m21.11 48-3.65 3.15s-2.3-.02-2.51-.61m2.51.61s-1.06.98-.83 1.39c.25.46 1.11.96 2.16 1.62.71.45 1.35.87 2.59 1.38.75.31 1.85-1.18 2.49-2.15 1.25-1.89 1.92-3.94 3.31-6.74.18-.37-1.03-1.11-1.03-1.11" class="cls-18"/><path d="M18.6 54.05s-.46 1.85-3.06 4.6c-1.99 2.1-1.39 1.78-1.39 1.78s1.53-.13 2.06-.21c.64-.1 2.61-.49 2.61-.49s.2 1.36.18 2.42c-.01.76-.37 3.01-.37 3.01s1.64-1.71 4.83-7.18c4.59-7.86 3.45-11.44 3.45-11.44s-.78 1.62-1.92 3.09c-1.14 1.47-2.71 2.72-3.27 4.02-.4.93-.36 1.9-.36 1.9m-7.54-10.49s1.36.43 3.5.05c1.55-.28 6.78-1.69 6.78-1.69s.46-.89 1.35-1.6c1.06-.85 1.91-.89 1.91-.89m-.19 5.73s.73-.28 1.5-.89c.8-.63 1.13-1.1 1.13-1.1" class="cls-18"/><path fill="#fff" stroke="#d3d3d4" stroke-linejoin="round" stroke-width="9" d="M19.5 33.1c-.02.22-.11.49-.28.83-.17.33-.41.65-.71.96-.34.35-.7.6-1.07.76-.37.16-.7.19-.99.11-.43-.14-.98-.35-1.65-.62-.67-.27-1.41-.58-2.23-.94-.82-.36-1.65-.74-2.5-1.14-.85-.4-1.69-.81-2.49-1.23-.81-.42-1.53-.81-2.16-1.18-.01-.25.04-.53.16-.85s.31-.62.58-.89c.31-.32.64-.51.97-.57.34-.06.73.03 1.18.27 1.36.73 2.69 1.42 3.97 2.07 1.28.65 2.62 1.31 4 1.98l.07-.07c-.44-.85-.94-1.75-1.48-2.7-.54-.96-1.1-1.93-1.68-2.93-.58-1-1.16-1.97-1.76-2.9.07-.23.17-.45.3-.68.13-.22.3-.44.51-.65.32-.33.67-.53 1.03-.61.36-.08.71.05 1.03.37.19.19.45.54.77 1.05s.67 1.12 1.03 1.82c.37.7.74 1.45 1.11 2.23.37.78.72 1.53 1.04 2.26s.59 1.38.81 1.96c.22.58.36 1.01.43 1.3Zm2.04-12.29c.12.45.24.96.36 1.53s.26 1.16.4 1.77c.14.62.29 1.23.45 1.82l.66 1.79c.07.27.15.55.24.84.09.29.17.58.25.87.08.29.16.56.23.81s.14.49.21.71c-.12.12-.25.26-.39.4s-.33.29-.55.43c-.49.3-.92.44-1.29.43s-.66-.19-.87-.53c-.1-.15-.17-.32-.22-.5-.05-.18-.11-.39-.18-.63-.13-.45-.28-1.03-.45-1.76s-.36-1.5-.54-2.34c-.19-.84-.37-1.67-.56-2.51-.18-.83-.35-1.6-.49-2.3-.14-.7-.25-1.25-.32-1.65.11-.22.32-.48.62-.79.3-.31.63-.58.99-.8.51-.32 1.01-.53 1.5-.63.49-.1.89-.02 1.2.25.63.49 1.33 1.06 2.1 1.73.77.67 1.58 1.37 2.41 2.1.83.74 1.64 1.45 2.42 2.14.78.69 1.48 1.32 2.09 1.88-.03.22-.14.45-.33.7-.19.25-.45.48-.79.68-.5.31-.9.44-1.21.39s-.62-.22-.95-.51l-1.82-1.67-1.23-1.31c-.49-.44-.96-.87-1.43-1.28-.47-.41-.9-.8-1.31-1.17-.41-.37-.77-.69-1.09-.97l-.11.07Zm.66 5.22 4.18-2.58 1.66 1.89-5.59 3.45-.25-2.76Zm18.86-9.81 1.91 5.98c-.11.21-.31.41-.59.61-.28.19-.64.36-1.07.49-.45.14-.9.21-1.33.19-.43-.02-.85-.24-1.27-.66l-3.91-3.84c-.24-.26-.49-.51-.73-.76s-.47-.5-.7-.75c-.23-.25-.46-.51-.69-.77l-2.7 1.56-1.24-3.9c.1-.28.3-.54.59-.76.29-.23.64-.4 1.02-.52.45-.14.9-.21 1.34-.18s.86.24 1.26.66l3.94 3.86c.25.23.49.47.73.73s.47.51.7.77c.23.26.45.52.67.79l2.67-1.58-.61-1.9Zm-8.64.15c.23.54.45 1.09.66 1.64.21.55.39 1.09.56 1.61l.48 1.52 1.24 3.88c-.1.06-.27.15-.52.27s-.5.23-.77.31c-.57.18-1.01.21-1.32.09s-.54-.45-.7-.97l-2.38-7.46 2.75-.9Zm6.8 3.63c-.41-.96-.76-1.87-1.04-2.75-.29-.88-.56-1.72-.81-2.52l-1.08-3.38c.12-.07.31-.16.55-.29.24-.12.49-.22.76-.31.57-.18 1.01-.21 1.31-.09.3.13.53.45.69.97l2.37 7.44-2.75.92Zm8.59-8.29-6.42.78c-.1-.13-.2-.3-.29-.5-.1-.21-.16-.44-.19-.71-.05-.44 0-.79.18-1.03.17-.24.43-.38.76-.42l5.63-.68.33 2.56Zm0-.57 1.29 10.63c-.12.04-.32.1-.59.18-.27.08-.56.13-.85.17-.61.07-1.06.02-1.34-.17s-.46-.56-.52-1.1l-1.13-9.32 3.15-.38ZM44.56 9.5l6.42-.78c.1.13.2.3.29.5.1.21.16.44.19.69.05.44 0 .79-.18 1.04-.17.25-.44.39-.78.43l-5.61.68-.33-2.56Zm13.06 2.19c-.18.44-.38.92-.62 1.44s-.48 1.08-.73 1.67c-.25.58-.49 1.16-.72 1.73l-.53 1.83c-.11.26-.21.53-.31.82-.1.29-.21.57-.31.85-.11.28-.21.54-.3.79s-.17.48-.25.7c-.17.03-.36.06-.56.09-.2.03-.43.04-.7.02-.57-.05-1-.19-1.29-.42s-.42-.55-.39-.94c.02-.18.05-.36.12-.54.06-.18.14-.38.23-.61.16-.44.39-1 .68-1.68s.61-1.42.95-2.21c.35-.79.69-1.57 1.04-2.35.35-.78.67-1.49.97-2.14.3-.65.54-1.16.73-1.52.22-.11.54-.2.97-.27.43-.07.85-.09 1.27-.05.6.05 1.13.18 1.58.39.45.21.73.51.82.91.22.76.44 1.64.66 2.64.23.99.45 2.04.69 3.12.23 1.09.46 2.14.67 3.16.22 1.02.4 1.94.56 2.76-.15.16-.38.28-.68.36-.3.09-.65.11-1.04.08-.59-.05-.99-.18-1.2-.41s-.36-.55-.46-.98L59 18.51l-.21-1.79c-.13-.64-.26-1.27-.39-1.88-.13-.61-.25-1.18-.36-1.72-.11-.54-.21-1.01-.3-1.43h-.13Zm-2.57 4.59 4.9.41.21 2.5-6.55-.55 1.44-2.37Zm21.36 3.19-1.83 6.01c-.21.11-.49.17-.83.16-.34 0-.73-.07-1.16-.2-.46-.14-.86-.34-1.2-.6-.35-.26-.57-.68-.67-1.27l-1.04-5.39c-.05-.35-.11-.7-.17-1.04-.06-.34-.11-.68-.15-1.01-.04-.34-.09-.68-.13-1.03l-3.11-.24 1.19-3.92c.24-.18.55-.27.92-.29.37-.02.75.03 1.14.15.46.14.86.34 1.21.61s.57.69.66 1.25l1.05 5.41c.08.33.14.67.19 1.01.05.34.09.69.14 1.03.04.34.08.69.1 1.03l3.09.22.58-1.91Zm-7.19-4.78c-.12.58-.25 1.15-.39 1.72-.14.57-.3 1.12-.46 1.64l-.46 1.53-1.19 3.9c-.12 0-.31-.03-.58-.07s-.54-.1-.81-.18c-.58-.18-.95-.4-1.13-.67s-.19-.67-.03-1.19l2.28-7.49 2.78.82Zm3.53 6.85c.21-1.02.44-1.97.71-2.86.26-.89.52-1.73.76-2.53l1.03-3.39c.14.01.35.04.61.08.27.04.53.1.8.18.58.18.95.4 1.12.67.17.27.18.67.02 1.19l-2.28 7.47-2.78-.8ZM100.5 80.7c-.07.05-.16.1-.26.15s-.23.07-.37.08c-.19.01-.34 0-.47-.04-.13-.04-.21-.12-.26-.23-.24-.56-.44-1.02-.6-1.4-.16-.37-.29-.7-.39-.97h-.04c0 .38.01.73.02 1.05 0 .32.02.62.02.92 0 .29.02.6.02.91 0 .31.01.65.02 1.01-.07.02-.16.05-.27.07-.11.03-.21.05-.32.05-.23.01-.41-.01-.54-.08-.13-.07-.2-.2-.21-.39 0-.13-.01-.33-.02-.59v-4.12c.04-.07.14-.15.27-.24.14-.08.33-.13.59-.15.27-.02.49.01.65.09.17.08.29.21.38.4.1.22.21.46.33.74l.36.84c.12.28.23.54.33.78h.04c.14-.55.28-1.08.43-1.59.14-.51.27-.94.38-1.29.08-.05.18-.09.3-.12.13-.04.26-.06.41-.07.26-.02.47 0 .63.07.16.07.26.17.3.32.03.11.07.29.11.53s.09.52.14.84c.05.32.1.65.15 1 .05.35.1.69.15 1.01.05.33.09.62.12.89s.06.48.07.63c-.09.06-.18.1-.28.13-.1.03-.22.05-.37.06-.19.01-.35-.01-.49-.07-.14-.06-.23-.19-.25-.39-.05-.47-.1-.92-.14-1.34s-.08-.81-.12-1.17c-.03-.35-.06-.65-.09-.9h-.04c-.06.27-.15.6-.27 1-.12.4-.26.92-.43 1.55Zm4.93-3.39c.62-.04 1.12.06 1.51.3s.6.63.63 1.18l.12 2.04c0 .15-.02.27-.1.37s-.16.18-.27.26c-.17.12-.39.22-.65.29s-.56.12-.91.14c-.61.04-1.1-.05-1.48-.27-.38-.21-.58-.56-.61-1.03-.02-.41.08-.73.32-.96s.6-.39 1.1-.47l1.2-.2v-.11c-.02-.21-.11-.35-.28-.43-.17-.08-.39-.11-.68-.09-.23.01-.45.05-.67.12-.22.07-.41.15-.58.23-.08-.05-.14-.12-.19-.21-.05-.09-.08-.19-.09-.3-.02-.25.11-.44.37-.57.17-.08.37-.14.6-.19.23-.05.45-.08.67-.09Zm.27 3.59c.14 0 .27-.03.41-.07.13-.04.23-.08.29-.12l-.05-.86-.76.11c-.2.03-.36.09-.47.16-.11.08-.16.19-.16.33s.07.26.19.34c.12.08.3.11.56.1Zm2.69-4.88c-.01-.2.05-.38.18-.53.13-.15.31-.23.52-.24s.4.05.54.17c.15.13.23.3.24.5s-.05.37-.18.52c-.13.15-.3.23-.52.24s-.4-.05-.55-.18c-.15-.13-.23-.3-.24-.49Zm.31 3.86-.15-2.57c.06-.02.14-.04.25-.07.11-.02.22-.04.35-.05.25-.02.44.02.56.1.12.08.19.24.21.48l.12 2.03-1.33.08Zm1.29-.77.14 2.36c-.06.02-.14.03-.25.06-.11.02-.22.04-.35.05-.25.02-.44-.02-.56-.1-.12-.08-.19-.24-.2-.47l-.11-1.82 1.33-.08Zm3.8-1.63 1.32-.08.17 2.88c0 .14-.01.26-.07.36-.05.1-.14.2-.27.28-.16.12-.36.22-.62.32s-.55.15-.9.18c-.5.03-.93-.03-1.3-.17-.37-.15-.66-.38-.88-.71-.22-.33-.34-.74-.37-1.24s.04-.97.22-1.32c.18-.35.43-.62.76-.81.33-.19.7-.29 1.12-.32.22-.01.41 0 .58.04s.31.09.42.15l.07 1.1c-.09-.07-.2-.13-.34-.18-.14-.05-.3-.07-.48-.06-.22.01-.4.07-.56.16-.16.1-.27.24-.35.43-.08.19-.11.43-.09.73.03.42.14.72.34.91.2.19.47.27.79.25.14 0 .26-.03.35-.07s.18-.07.24-.11l-.16-2.71Zm.01.26-.14-2.34c.06-.02.14-.04.25-.07.11-.02.22-.04.34-.05.26-.02.45.02.57.1s.19.24.2.48l.11 1.8-1.33.08Zm115.58-34.06c-.03.13-.09.24-.18.33-.09.09-.19.15-.29.19-.13-.13-.28-.25-.45-.37-.17-.11-.38-.2-.63-.25-.32-.06-.6-.05-.86.04-.25.09-.47.25-.65.49-.18.24-.3.54-.38.91-.12.57-.06 1.03.17 1.38.23.35.58.58 1.07.68.26.05.49.06.68.03.2-.03.38-.08.55-.15.07.08.13.18.16.3.04.11.04.24.01.37-.02.12-.08.22-.16.3-.08.08-.2.15-.36.19-.12.04-.29.06-.51.08-.21.01-.47 0-.77-.07-.52-.11-.97-.3-1.35-.59-.38-.29-.66-.67-.82-1.14-.17-.47-.18-1.02-.06-1.66.12-.61.35-1.1.68-1.47.33-.37.72-.62 1.18-.76.46-.13.93-.15 1.43-.05.35.07.64.17.88.3.24.13.41.28.52.43.11.16.15.32.11.49Zm2.46.76c.61.12 1.06.35 1.38.68.31.33.42.76.31 1.3l-.41 2c-.03.15-.09.26-.19.33-.1.08-.2.14-.33.18-.2.07-.43.11-.71.11s-.58-.03-.91-.09c-.6-.12-1.05-.33-1.36-.64-.31-.3-.42-.69-.32-1.15.08-.4.27-.68.56-.85.29-.16.68-.22 1.18-.17l1.21.12.02-.11c.04-.21 0-.37-.15-.49s-.35-.21-.63-.27c-.22-.05-.45-.06-.68-.05-.23 0-.44.03-.62.08-.06-.07-.1-.15-.13-.26s-.03-.21 0-.31c.05-.25.22-.4.51-.46.18-.03.39-.04.63-.03.23.01.46.04.67.08Zm-.66 3.55c.14.03.27.04.41.04.14 0 .24-.02.31-.04l.17-.85-.76-.09c-.2-.02-.37-.01-.5.04s-.21.14-.24.28c-.03.15 0 .27.1.38.09.11.27.19.51.24Zm4.79-1.65-.67 3.34h-.25c-.11 0-.23-.02-.35-.04-.25-.05-.42-.13-.52-.24-.1-.11-.12-.28-.08-.51l.57-2.8 1.3.26Zm-.12.26-1.23-.25.25-1.24c.08-.39.23-.69.44-.89.21-.21.47-.34.78-.4.31-.06.63-.05.98.02.41.08.71.2.89.35s.25.35.2.59c-.02.1-.06.19-.12.26-.06.08-.13.13-.19.17-.1-.06-.21-.11-.34-.16s-.27-.1-.42-.13c-.28-.06-.5-.05-.66.02-.16.07-.27.23-.32.47l-.24 1.2Zm-.02-.89 1.72.35c.02.05.04.13.05.22s0 .19-.01.3c-.04.18-.1.3-.2.36-.1.07-.21.09-.36.06l-1.4-.28.2-1.01Zm2.7 2.15 2.27.1c.02-.17-.03-.34-.13-.51-.1-.16-.28-.27-.53-.32-.27-.05-.51-.01-.73.13-.21.14-.36.38-.43.72l-.09.61c0 .34.09.59.28.78.19.18.45.31.75.37.25.05.49.06.72.04.23-.02.42-.06.58-.12.07.07.13.16.17.26.04.11.05.21.03.32-.04.18-.14.31-.3.4-.16.09-.37.14-.63.15-.26 0-.54-.02-.85-.08-.45-.09-.84-.26-1.17-.5-.32-.24-.55-.56-.69-.94-.14-.38-.15-.83-.05-1.34.08-.38.2-.69.37-.94.17-.25.38-.45.62-.59.24-.14.5-.23.77-.26.27-.04.55-.03.83.03.4.08.74.24 1.01.46.27.22.46.49.58.8.12.31.14.65.06 1.01-.04.18-.11.31-.23.38-.12.07-.27.1-.45.1l-2.89-.15.13-.89Z"/><path d="M162.01 21.71c.12.28.08.86 0 1.15-.67 2.81-2.08 8.57-2.79 11.53-.09.36-.58 1.01-.92 1.15-2.02.85-6.94-.68-8.47-2.24-.24-.24-.32-1.02-.24-1.35.71-2.91 2.13-8.61 2.83-11.46.07-.29.47-.76.66-.99.51-.58 1.58-1.36 4.68-.59 3.13.77 3.68 1.43 4.25 2.79ZM52.79 74.83c.26.16.56.65.68.93 1.1 2.67 3.32 8.17 4.48 10.99.14.34.11 1.16-.08 1.47-1.14 1.87-6.02 3.51-8.18 3.14-.34-.06-.85-.64-.98-.96-1.13-2.77-3.3-8.23-4.4-10.95-.11-.28-.07-.89-.04-1.19.07-.77.49-2.02 3.45-3.22s3.82-.99 5.08-.22Z" class="cls-18"/><circle cx="218.33" cy="43.36" r="1.39" class="cls-18"/><circle cx="221.93" cy="39.71" r="1.93" class="cls-18"/><circle cx="68.22" cy="42.29" r="2.79" class="cls-18"/><circle cx="62.82" cy="47.01" r="1.93" class="cls-18"/><circle cx="56.91" cy="48.01" r="1.45" class="cls-18"/><circle cx="228.12" cy="37.35" r="2.91" class="cls-18"/><path d="M159.52 84.94c.53-3.82 1.02-8 1.39-11.73.41-4.35.78-8.93.62-12.97-2.64.16-5.79.57-9.43 1.46-.14 5.04-.27 8.2-.48 13.13-.47 4.36-.52 9.08-1.09 13.15l-10.83.91c.51-5.39.74-9.71.85-13.54.24-4.21.42-7.49.53-11.8-3.55.64-6.42 1.31-9.51 1.77l-1.17-10.5c3.16-.83 6.81-1.61 10.61-2.16.1-3.94-.08-8.58-.51-12.4l10.77-1.39c.31 3.83.58 7.79.55 11.79 1.73-.22 6.09-.66 10.44-1.11 4.66-.48 8.31-.77 10-.81 0 0 1.13 4.57.85 8.9-.24 4.69-.24 8.92-.73 12.19-.77 5.3-1.3 10.51-2.65 16.49l-10.22-1.4Zm46.95-15.74c3.88.47 10 1.36 12.82 1.94l2.4-12.67c-3.19-.59-6.8-1.19-11-1.91l1.87-8.14c9.68 1.42 19.34 3.32 29.11 5.55l-1.66 7.69c-3.42-.63-6.68-1.17-10.28-1.83l-2.4 12.67c4.39.99 8.2 1.51 11.72 2.28l-1.39 7.86c-10.93-1.95-21.68-3.87-32.63-6.02l1.43-7.42Z" class="cls-24"/><path d="M97.09 75.66c.2-16.49-.22-33.09.1-49.39l11.64-.66c.22 6.81.43 13.13.75 18.21 4.03.44 14.48 3.33 18.66 5.06.11 3.47-.03 6.63-.23 9.73-4.6-.74-13.98-2.47-18.69-2.77-.06 8.61-.3 13.95-.28 19.21l-11.95.6Z" class="cls-11"/><path d="m119.61 30.7-1.77 3.71-3.7-1.77m16.26-1.08-1.77 3.71-3.71-1.77" class="cls-11"/><path d="M72.12 71.24c-3.03 2.11-9.45 5.52-11.53 6.98l-4.54-8.02c7.48-4.6 11.95-7.75 17.29-11.89 4.64-3.67 9.97-8.14 13.95-12.28l7.14 6.35c-2.86 3.88-7.99 8.1-11.45 11.47l.13 1.27c-.6 4.74-2.5 22.52-3.24 26.53l-9.98-.72c.8-6.47 1.73-13.04 2.23-19.71Z" class="cls-24"/><path fill="#fff" stroke="#fff" stroke-linecap="round" stroke-miterlimit="10" stroke-width="12" d="M209.47 34.79s-.91 6.03-1.48 7.97c-.55 1.87-2.98 7.2-2.98 7.2m-1.38 2.42h0"/><path d="M180.94 66.93c3-4.02 6.06-8.16 9.18-12.6 3.12-4.56 6.78-10.14 8.7-14.52-12 .24-22.32.72-31.8 1.08l.12-10.68c7.74-.78 15.78-.96 23.46-1.14 7.32-.18 14.58-.18 21.66-.18.3 3.54.54 7.2-.06 10.98-2.82 6.18-5.76 12.48-9.36 18.3-3.66 5.82-8.64 12-12.96 17.1l-8.94-8.34Z" class="cls-24"/><path d="M167.64 30.09c5.83-.39 5.8-.44 8.55-.54 6.26-.24 6.18-.26 13.38-.4 5.28-.1 5.28-.23 12.85-.33 8.76-.11 9.28-.76 9.39.8q-.24-3.21-1.48-6.71-.57-1.63-1.22-1.83c-2.19-.71-4.66 5.89-4.86 5.69-.98-1.02 3.34-12.93-1.68-14.26-6.28-1.66-4.38 11.91-6.1 11.37-4.85-1.51.36-14.5-7.12-14.54-7.4-.04-3.41 12.57-7.76 14.08-1.85.65.68-12.56-4.53-11.54-5.38 1.06-3.12 15.71-3.8 15.73-.51.01-2-6.88-3.74-6.85-.42 0-.68.13-1.16 1.72s-.68 2.71-.73 7.62Z" class="cls-11"/><path d="M173.48 15.73s-.89 1.87-2.08 3.1c-1.02 1.06-2.49 1.49-2.45 1.51.64.38 1.21.97 2.1 2.3.92 1.38 1.94 3.37 2.02 3.29.11-.11-.02-2.39-.04-5.88-.02-2.65.47-4.3.46-4.32Zm32.01 1.18s-.21 1.64.76 2.92c.73.98 2.26.78 2.22.8-1.09.51-1.16 1.18-2.06 2.5s-2.29 3.27-2.36 3.19c-.1-.11.74-1.74.85-5.23.09-2.65.57-4.16.59-4.19Zm-19.26-6.98c-.7.18-.8.91-4.13 2.56-1.21.6-3.31-.97-3.27-.84.28.97 2.09 5 2.06 6.6-.06 3.5.61 6.16.72 4.83.01-.15 2.01.06 2.58-7.47.33-4.31 2.06-5.7 2.04-5.69Zm6.06-.06c1.06.95 2.05 2.37 3.99 3.12 1.42.55 4.07-.91 3.94-.84-1.05.58-1.88 2.45-2.6 6.64-.59 3.45-.78 4.71-1.07 4.81-.24.08-2.33 0-2.79-7.54-.26-4.32-1.5-6.22-1.47-6.19ZM22.13 76.59c2.05-2.86 4.77-6.92 6.54-10.1 1.7-3.17 3.5-6.12 5.25-9.36-2.09-.59-10.54-3.49-13.64-4.66l4.13-9.97c3.07.63 10.82 2.91 13.51 3.41 1.68-3.29 3.21-6.8 4.67-10 1.41-3.13 2.46-6.14 3.32-9.67l10.64 2.14c-.88 3.41-2.02 7.83-3.19 10.92-1.32 3.3-2.81 6.68-3.95 9.95 3.16 1.22 9.38 2.64 12.74 3.95l-3.87 10.48c-2.83-.66-10.45-2.84-13.33-3.44-2.41 4.13-4.2 7.5-6.45 10.69-2.25 3.19-4.91 7.61-7.63 10.51l-8.75-4.86Z" class="cls-24"/><path d="M27.36 40.43c-.07-2.59 1.79-8.13 3.99-9.62.8-.54 5.07 2.38 5.07 2.38s-.62.81-1.54 2.08c-1.02 1.41-2.36 3.32-2.86 3.95-.94 1.2-3.07 3.69-3.07 3.69s-1.58-1.81-1.6-2.48Zm5.16-1.84 3.91-2.82s.52-2.24-.01-2.58m.01 2.58s1.26-.7 1.55-.49c.24.18.68 1.31 1.08 2.48.27.8.53 1.51.74 2.84.13.8-1.58 1.52-2.67 1.92-2.13.77-4.28.96-7.32 1.65-.4.09-.84-1.26-.84-1.26" class="cls-11"/><path d="M38.98 37.55s1.9-.01 5.19-1.9c2.51-1.44 2.35-1.4 2.35-1.4s-.48 1.46-.68 1.95c-.24.6-1.09 2.42-1.09 2.42s1.27.51 2.31.74c.74.16 3.01.34 3.01.34s-2.34 1.66-8.4 3.5c-8.71 2.63-11.93.7-11.93.7s1.76-.38 3.46-1.14 3.39-1.84 4.67-2.25c.96-.3 1.93.09 1.93.09m-12.44-.17s2.59-4.76 3.22-6.21c.87-2 .77-3.41.77-3.41m-7.25 12.1c-2.51-.67-8.32-.15-10.28 1.64-.71.65 1.13 5.49 1.13 5.49s.94-.41 2.38-1.01c1.61-.66 3.78-1.53 4.51-1.86 1.39-.63 4.3-2.13 4.3-2.13s-1.39-1.96-2.04-2.13Z" class="cls-11"/><path d="m21.11 47.5-3.65 3.15s-2.3-.02-2.51-.61m2.51.61s-1.06.98-.83 1.39c.25.46 1.11.96 2.16 1.62.71.45 1.35.87 2.59 1.38.75.31 1.85-1.18 2.49-2.15 1.25-1.89 1.92-3.94 3.31-6.74.18-.37-1.03-1.11-1.03-1.11" class="cls-11"/><path d="M18.6 53.55s-.46 1.85-3.06 4.6c-1.99 2.1-1.39 1.78-1.39 1.78s1.53-.13 2.06-.21c.64-.1 2.61-.49 2.61-.49s.2 1.36.18 2.42c-.01.76-.37 3.01-.37 3.01s1.64-1.71 4.83-7.18c4.59-7.86 3.45-11.44 3.45-11.44s-.78 1.62-1.92 3.09c-1.14 1.47-2.71 2.72-3.27 4.02-.4.93-.36 1.9-.36 1.9m-7.54-10.49s1.36.43 3.5.05c1.55-.28 6.78-1.69 6.78-1.69s.46-.89 1.35-1.6c1.06-.85 1.91-.89 1.91-.89m-.19 5.73s.73-.28 1.5-.89c.8-.63 1.13-1.1 1.13-1.1" class="cls-11"/><path fill="#fff" stroke="#fff" stroke-linejoin="round" stroke-width="7" d="M19.5 33.31c-.02.22-.11.49-.28.83-.17.33-.41.65-.71.96-.34.35-.7.6-1.07.76-.37.16-.7.19-.99.11-.43-.14-.98-.35-1.65-.62-.67-.27-1.41-.58-2.23-.94-.82-.36-1.65-.74-2.5-1.14-.85-.4-1.69-.81-2.49-1.23-.81-.42-1.53-.81-2.16-1.18-.01-.25.04-.53.16-.85s.31-.62.58-.89c.31-.32.64-.51.97-.57.34-.06.73.03 1.18.27 1.36.73 2.69 1.42 3.97 2.07 1.28.65 2.62 1.31 4 1.98l.07-.07c-.44-.85-.94-1.75-1.48-2.7-.54-.96-1.1-1.93-1.68-2.93-.58-1-1.16-1.97-1.76-2.9.07-.23.17-.45.3-.68.13-.22.3-.44.51-.65.32-.33.67-.53 1.03-.61.36-.08.71.05 1.03.37.19.19.45.54.77 1.05s.67 1.12 1.03 1.82c.37.7.74 1.45 1.11 2.23.37.78.72 1.53 1.04 2.26s.59 1.38.81 1.96c.22.58.36 1.01.43 1.3Zm2.04-12.3c.12.45.24.96.36 1.53s.26 1.16.4 1.77c.14.62.29 1.23.45 1.82l.66 1.79c.07.27.15.55.24.84.09.29.17.58.25.87.08.29.16.56.23.81s.14.49.21.71c-.12.12-.25.26-.39.4s-.33.29-.55.43c-.49.3-.92.44-1.29.43s-.66-.19-.87-.53c-.1-.15-.17-.32-.22-.5-.05-.18-.11-.39-.18-.63-.13-.45-.28-1.03-.45-1.76s-.36-1.5-.54-2.34c-.19-.84-.37-1.67-.56-2.51-.18-.83-.35-1.6-.49-2.3-.14-.7-.25-1.25-.32-1.65.11-.22.32-.48.62-.79.3-.31.63-.58.99-.8.51-.32 1.01-.53 1.5-.63.49-.1.89-.02 1.2.25.63.49 1.33 1.06 2.1 1.73.77.67 1.58 1.37 2.41 2.1.83.74 1.64 1.45 2.42 2.14.78.69 1.48 1.32 2.09 1.88-.03.22-.14.45-.33.7-.19.25-.45.48-.79.68-.5.31-.9.44-1.21.39s-.62-.22-.95-.51l-1.82-1.67-1.23-1.31c-.49-.44-.96-.87-1.43-1.28-.47-.41-.9-.8-1.31-1.17-.41-.37-.77-.69-1.09-.97l-.11.07Zm.66 5.23 4.18-2.58 1.66 1.89L22.45 29l-.25-2.76Zm18.86-9.81 1.91 5.98c-.11.21-.31.41-.59.61-.28.19-.64.36-1.07.49-.45.14-.9.21-1.33.19-.43-.02-.85-.24-1.27-.66L34.8 19.2c-.24-.26-.49-.51-.73-.76s-.47-.5-.7-.75c-.23-.25-.46-.51-.69-.77l-2.7 1.56-1.24-3.9c.1-.28.3-.54.59-.76.29-.23.64-.4 1.02-.52.45-.14.9-.21 1.34-.18s.86.24 1.26.66l3.94 3.86c.25.23.49.47.73.73s.47.51.7.77c.23.26.45.52.67.79l2.67-1.58-.61-1.9Zm-8.64.15c.23.54.45 1.09.66 1.64.21.55.39 1.09.56 1.61l.48 1.52 1.24 3.88c-.1.06-.27.15-.52.27s-.5.23-.77.31c-.57.18-1.01.21-1.32.09s-.54-.45-.7-.97l-2.38-7.46 2.75-.9Zm6.8 3.63c-.41-.96-.76-1.87-1.04-2.75-.29-.88-.56-1.72-.81-2.52l-1.08-3.38c.12-.07.31-.16.55-.29.24-.12.49-.22.76-.31.57-.18 1.01-.21 1.31-.09.3.13.53.45.69.97l2.37 7.44-2.75.92Zm8.59-8.29-6.42.78c-.1-.13-.2-.3-.29-.5-.1-.21-.16-.44-.19-.71-.05-.44 0-.79.18-1.03.17-.24.43-.38.76-.42l5.63-.68.33 2.56Zm0-.57 1.29 10.63c-.12.04-.32.1-.59.18-.27.08-.56.13-.85.17-.61.07-1.06.02-1.34-.17s-.46-.56-.52-1.1l-1.13-9.32 3.15-.38Zm-3.25-1.64 6.42-.78c.1.13.2.3.29.5.1.21.16.44.19.69.05.44 0 .79-.18 1.04-.17.25-.44.39-.78.43l-5.61.68-.33-2.56Zm13.06 2.18c-.18.44-.38.92-.62 1.44s-.48 1.08-.73 1.67c-.25.58-.49 1.16-.72 1.73l-.53 1.83c-.11.26-.21.53-.31.82-.1.29-.21.57-.31.85-.11.28-.21.54-.3.79s-.17.48-.25.7c-.17.03-.36.06-.56.09-.2.03-.43.04-.7.02-.57-.05-1-.19-1.29-.42s-.42-.55-.39-.94c.02-.18.05-.36.12-.54.06-.18.14-.38.23-.61.16-.44.39-1 .68-1.68s.61-1.42.95-2.21c.35-.79.69-1.57 1.04-2.35.35-.78.67-1.49.97-2.14.3-.65.54-1.16.73-1.52.22-.11.54-.2.97-.27.43-.07.85-.09 1.27-.05.6.05 1.13.18 1.58.39.45.21.73.51.82.91.22.76.44 1.64.66 2.64.23.99.45 2.04.69 3.12.23 1.09.46 2.14.67 3.16.22 1.02.4 1.94.56 2.76-.15.16-.38.28-.68.36-.3.09-.65.11-1.04.08-.59-.05-.99-.18-1.2-.41s-.36-.55-.46-.98L59 18.71l-.21-1.79c-.13-.64-.26-1.27-.39-1.88-.13-.61-.25-1.18-.36-1.72-.11-.54-.21-1.01-.3-1.43h-.13Zm-2.57 4.59 4.9.41.21 2.5-6.55-.55 1.44-2.37Zm21.36 3.2-1.83 6.01c-.21.11-.49.17-.83.16-.34 0-.73-.07-1.16-.2-.46-.14-.86-.34-1.2-.6-.35-.26-.57-.68-.67-1.27l-1.04-5.39c-.05-.35-.11-.7-.17-1.04-.06-.34-.11-.68-.15-1.01-.04-.34-.09-.68-.13-1.03l-3.11-.24 1.19-3.92c.24-.18.55-.27.92-.29.37-.02.75.03 1.14.15.46.14.86.34 1.21.61s.57.69.66 1.25l1.05 5.41c.08.33.14.67.19 1.01.05.34.09.69.14 1.03.04.34.08.69.1 1.03l3.09.22.58-1.91Zm-7.19-4.78c-.12.58-.25 1.15-.39 1.72-.14.57-.3 1.12-.46 1.64l-.46 1.53-1.19 3.9c-.12 0-.31-.03-.58-.07s-.54-.1-.81-.18c-.58-.18-.95-.4-1.13-.67s-.19-.67-.03-1.19l2.28-7.49 2.78.82Zm3.53 6.85c.21-1.02.44-1.97.71-2.86.26-.89.52-1.73.76-2.53l1.03-3.39c.14.01.35.04.61.08.27.04.53.1.8.18.58.18.95.4 1.12.67.17.27.18.67.02 1.19l-2.28 7.47-2.78-.8ZM100.5 80.2c-.07.05-.16.1-.26.15s-.23.07-.37.08c-.19.01-.34 0-.47-.04-.13-.04-.21-.12-.26-.23-.24-.56-.44-1.02-.6-1.4-.16-.37-.29-.7-.39-.97h-.04c0 .38.01.73.02 1.05 0 .32.02.62.02.92 0 .29.02.6.02.91 0 .31.01.65.02 1.01-.07.02-.16.05-.27.07-.11.03-.21.05-.32.05-.23.01-.41-.01-.54-.08-.13-.07-.2-.2-.21-.39 0-.13-.01-.33-.02-.59v-4.12c.04-.07.14-.15.27-.24.14-.08.33-.13.59-.15.27-.02.49.01.65.09.17.08.29.21.38.4.1.22.21.46.33.74l.36.84c.12.28.23.54.33.78h.04c.14-.55.28-1.08.43-1.59.14-.51.27-.94.38-1.29.08-.05.18-.09.3-.12.13-.04.26-.06.41-.07.26-.02.47 0 .63.07.16.07.26.17.3.32.03.11.07.29.11.53s.09.52.14.84c.05.32.1.65.15 1 .05.35.1.69.15 1.01.05.33.09.62.12.89s.06.48.07.63c-.09.06-.18.1-.28.13-.1.03-.22.05-.37.06-.19.01-.35-.01-.49-.07-.14-.06-.23-.19-.25-.39-.05-.47-.1-.92-.14-1.34s-.08-.81-.12-1.17c-.03-.35-.06-.65-.09-.9h-.04c-.06.27-.15.6-.27 1-.12.4-.26.92-.43 1.55Zm4.93-3.39c.62-.04 1.12.06 1.51.3s.6.63.63 1.18l.12 2.04c0 .15-.02.27-.1.37s-.16.18-.27.26c-.17.12-.39.22-.65.29s-.56.12-.91.14c-.61.04-1.1-.05-1.48-.27-.38-.21-.58-.56-.61-1.03-.02-.41.08-.73.32-.96s.6-.39 1.1-.47l1.2-.2v-.11c-.02-.21-.11-.35-.28-.43-.17-.08-.39-.11-.68-.09-.23.01-.45.05-.67.12-.22.07-.41.15-.58.23-.08-.05-.14-.12-.19-.21-.05-.09-.08-.19-.09-.3-.02-.25.11-.44.37-.57.17-.08.37-.14.6-.19.23-.05.45-.08.67-.09Zm.27 3.59c.14 0 .27-.03.41-.07.13-.04.23-.08.29-.12l-.05-.86-.76.11c-.2.03-.36.09-.47.16-.11.08-.16.19-.16.33s.07.26.19.34c.12.08.3.11.56.1Zm2.69-4.88c-.01-.2.05-.38.18-.53.13-.15.31-.23.52-.24s.4.05.54.17c.15.13.23.3.24.5s-.05.37-.18.52c-.13.15-.3.23-.52.24s-.4-.05-.55-.18c-.15-.13-.23-.3-.24-.49Zm.31 3.86-.15-2.57c.06-.02.14-.04.25-.07.11-.02.22-.04.35-.05.25-.02.44.02.56.1.12.08.19.24.21.48l.12 2.03-1.33.08Zm1.29-.77.14 2.36c-.06.02-.14.03-.25.06-.11.02-.22.04-.35.05-.25.02-.44-.02-.56-.1-.12-.08-.19-.24-.2-.47l-.11-1.82 1.33-.08Zm3.8-1.63 1.32-.08.17 2.88c0 .14-.01.26-.07.36-.05.1-.14.2-.27.28-.16.12-.36.22-.62.32s-.55.15-.9.18c-.5.03-.93-.03-1.3-.17-.37-.15-.66-.38-.88-.71-.22-.33-.34-.74-.37-1.24s.04-.97.22-1.32c.18-.35.43-.62.76-.81.33-.19.7-.29 1.12-.32.22-.01.41 0 .58.04s.31.09.42.15l.07 1.1c-.09-.07-.2-.13-.34-.18-.14-.05-.3-.07-.48-.06-.22.01-.4.07-.56.16-.16.1-.27.24-.35.43-.08.19-.11.43-.09.73.03.42.14.72.34.91.2.19.47.27.79.25.14 0 .26-.03.35-.07s.18-.07.24-.11l-.16-2.71Zm.01.26-.14-2.34c.06-.02.14-.04.25-.07.11-.02.22-.04.34-.05.26-.02.45.02.57.1s.19.24.2.48l.11 1.8-1.33.08Zm115.58-34.06c-.03.13-.09.24-.18.33-.09.09-.19.15-.29.19-.13-.13-.28-.25-.45-.37-.17-.11-.38-.2-.63-.25-.32-.06-.6-.05-.86.04-.25.09-.47.25-.65.49-.18.24-.3.54-.38.91-.12.57-.06 1.03.17 1.38.23.35.58.58 1.07.68.26.05.49.06.68.03.2-.03.38-.08.55-.15.07.08.13.18.16.3.04.11.04.24.01.37-.02.12-.08.22-.16.3-.08.08-.2.15-.36.19-.12.04-.29.06-.51.08-.21.01-.47 0-.77-.07-.52-.11-.97-.3-1.35-.59-.38-.29-.66-.67-.82-1.14-.17-.47-.18-1.02-.06-1.66.12-.61.35-1.1.68-1.47.33-.37.72-.62 1.18-.76.46-.13.93-.15 1.43-.05.35.07.64.17.88.3.24.13.41.28.52.43.11.16.15.32.11.49Zm2.46.76c.61.12 1.06.35 1.38.68.31.33.42.76.31 1.3l-.41 2c-.03.15-.09.26-.19.33-.1.08-.2.14-.33.18-.2.07-.43.11-.71.11s-.58-.03-.91-.09c-.6-.12-1.05-.33-1.36-.64-.31-.3-.42-.69-.32-1.15.08-.4.27-.68.56-.85.29-.16.68-.22 1.18-.17l1.21.12.02-.11c.04-.21 0-.37-.15-.49s-.35-.21-.63-.27c-.22-.05-.45-.06-.68-.05-.23 0-.44.03-.62.08-.06-.07-.1-.15-.13-.26s-.03-.21 0-.31c.05-.25.22-.4.51-.46.18-.03.39-.04.63-.03.23.01.46.04.67.08Zm-.66 3.55c.14.03.27.04.41.04.14 0 .24-.02.31-.04l.17-.85-.76-.09c-.2-.02-.37-.01-.5.04s-.21.14-.24.28c-.03.15 0 .27.1.38.09.11.27.19.51.24Zm4.79-1.65-.67 3.34h-.25c-.11 0-.23-.02-.35-.04-.25-.05-.42-.13-.52-.24-.1-.11-.12-.28-.08-.51l.57-2.8 1.3.26Zm-.12.26-1.23-.25.25-1.24c.08-.39.23-.69.44-.89.21-.21.47-.34.78-.4.31-.06.63-.05.98.02.41.08.71.2.89.35s.25.35.2.59c-.02.1-.06.19-.12.26-.06.08-.13.13-.19.17-.1-.06-.21-.11-.34-.16s-.27-.1-.42-.13c-.28-.06-.5-.05-.66.02-.16.07-.27.23-.32.47l-.24 1.2Zm-.02-.89 1.72.35c.02.05.04.13.05.22s0 .19-.01.3c-.04.18-.1.3-.2.36-.1.07-.21.09-.36.06l-1.4-.28.2-1.01Zm2.7 2.15 2.27.1c.02-.17-.03-.34-.13-.51-.1-.16-.28-.27-.53-.32-.27-.05-.51-.01-.73.13-.21.14-.36.38-.43.72l-.09.61c0 .34.09.59.28.78.19.18.45.31.75.37.25.05.49.06.72.04.23-.02.42-.06.58-.12.07.07.13.16.17.26.04.11.05.21.03.32-.04.18-.14.31-.3.4-.16.09-.37.14-.63.15-.26 0-.54-.02-.85-.08-.45-.09-.84-.26-1.17-.5-.32-.24-.55-.56-.69-.94-.14-.38-.15-.83-.05-1.34.08-.38.2-.69.37-.94.17-.25.38-.45.62-.59.24-.14.5-.23.77-.26.27-.04.55-.03.83.03.4.08.74.24 1.01.46.27.22.46.49.58.8.12.31.14.65.06 1.01-.04.18-.11.31-.23.38-.12.07-.27.1-.45.1l-2.89-.15.13-.89Z"/><path d="M162.01 21.21c.12.28.08.86 0 1.15-.67 2.81-2.08 8.57-2.79 11.53-.09.36-.58 1.01-.92 1.15-2.02.85-6.94-.68-8.47-2.24-.24-.24-.32-1.02-.24-1.35.71-2.91 2.13-8.61 2.83-11.46.07-.29.47-.76.66-.99.51-.58 1.58-1.36 4.68-.59 3.13.77 3.68 1.43 4.25 2.79ZM52.79 74.33c.26.16.56.65.68.93 1.1 2.67 3.32 8.17 4.48 10.99.14.34.11 1.16-.08 1.47-1.14 1.87-6.02 3.51-8.18 3.14-.34-.06-.85-.64-.98-.96-1.13-2.77-3.3-8.23-4.4-10.95-.11-.28-.07-.89-.04-1.19.07-.77.49-2.02 3.45-3.22s3.82-.99 5.08-.22Z" class="cls-11"/><circle cx="218.33" cy="42.86" r="1.39" class="cls-11"/><circle cx="221.93" cy="39.21" r="1.93" class="cls-11"/><circle cx="68.22" cy="41.79" r="2.79" class="cls-11"/><circle cx="62.82" cy="46.51" r="1.93" class="cls-11"/><circle cx="56.91" cy="47.51" r="1.45" class="cls-11"/><circle cx="228.12" cy="36.85" r="2.91" class="cls-11"/><path d="M165.52 27.25c5.83-.39 5.8-.44 8.55-.54 6.26-.24 6.18-.26 13.38-.4 5.28-.1 5.28-.23 12.85-.33 8.76-.11 9.28-.76 9.39.8q-.24-3.21-1.48-6.71-.57-1.63-1.22-1.83c-2.19-.71-4.66 5.89-4.86 5.69-.98-1.02 3.34-12.93-1.68-14.26-6.28-1.66-4.38 11.91-6.1 11.37-4.85-1.51.36-14.5-7.12-14.54-7.4-.04-3.41 12.57-7.76 14.08-1.85.65.68-12.56-4.53-11.54-5.38 1.06-3.12 15.71-3.8 15.73-.51.01-2-6.88-3.74-6.85-.42 0-.68.13-1.16 1.72-.49 1.65-.68 2.71-.73 7.62Z" class="cls-14"/><path d="M171.35 12.9s-.89 1.87-2.08 3.1c-1.02 1.06-2.49 1.49-2.45 1.51.64.38 1.21.97 2.1 2.3s1.94 3.37 2.02 3.29c.11-.11-.02-2.39-.04-5.88-.02-2.65.47-4.3.46-4.32Zm32.01 1.17s-.21 1.64.76 2.92c.73.98 2.26.78 2.22.8-1.09.51-1.16 1.18-2.06 2.5-.92 1.36-2.29 3.27-2.36 3.19-.1-.11.74-1.74.85-5.23.09-2.65.57-4.16.59-4.19ZM184.1 7.09c-.7.18-.8.91-4.13 2.56-1.21.6-3.31-.97-3.27-.84.28.97 2.09 5 2.06 6.6-.06 3.5.61 6.16.72 4.83.01-.15 2.01.06 2.58-7.47.33-4.31 2.06-5.7 2.04-5.69Zm6.07-.05c1.06.95 2.05 2.37 3.99 3.12 1.42.55 4.07-.91 3.94-.84-1.05.58-1.88 2.45-2.6 6.64-.59 3.45-.78 4.71-1.07 4.81-.24.08-2.33 0-2.79-7.54-.26-4.32-1.5-6.22-1.47-6.19ZM157.39 82.1c.53-3.82 1.02-8 1.39-11.73.41-4.35.78-8.93.62-12.97-2.64.16-5.79.57-9.43 1.46-.14 5.04-.27 8.2-.48 13.13-.47 4.36-.52 9.08-1.09 13.15l-10.83.91c.51-5.39.74-9.71.85-13.54.24-4.21.42-7.49.53-11.8-3.55.64-6.42 1.31-9.51 1.77l-1.17-10.5c3.16-.83 6.81-1.61 10.61-2.16.1-3.94-.08-8.58-.51-12.4l10.77-1.39c.31 3.83.58 7.79.55 11.79 1.73-.22 6.09-.66 10.44-1.11 4.66-.48 8.31-.77 10-.81 0 0 1.13 4.57.85 8.9-.24 4.69-.24 8.92-.73 12.19-.77 5.3-1.3 10.51-2.65 16.49l-10.22-1.4Zm46.95-15.73c3.88.47 10 1.36 12.82 1.94l2.4-12.67c-3.19-.59-6.8-1.19-11-1.91l1.87-8.14c9.68 1.42 19.34 3.32 29.11 5.55l-1.66 7.69c-3.42-.63-6.68-1.17-10.28-1.83l-2.4 12.67c4.39.99 8.2 1.51 11.72 2.28l-1.39 7.86c-10.93-1.95-21.68-3.87-32.63-6.02l1.43-7.42Z" class="cls-32"/><path d="M94.96 72.82c.2-16.49-.22-33.09.1-49.39l11.64-.66c.22 6.81.43 13.13.75 18.21 4.03.44 14.48 3.33 18.66 5.06.11 3.47-.03 6.63-.23 9.73-4.6-.74-13.98-2.47-18.69-2.77-.06 8.61-.3 13.95-.28 19.21l-11.95.6Z" class="cls-14"/><path d="m117.49 27.87-1.77 3.71-3.71-1.77m16.27-1.08-1.77 3.71-3.71-1.77" class="cls-14"/><path d="M69.99 68.4c-3.03 2.11-9.45 5.52-11.53 6.98l-4.54-8.02c7.48-4.6 11.95-7.75 17.29-11.89 4.64-3.67 9.97-8.14 13.95-12.28l7.14 6.35c-2.86 3.88-7.99 8.1-11.45 11.47l.13 1.27c-.6 4.74-2.5 22.52-3.24 26.53l-9.98-.72c.8-6.47 1.73-13.04 2.23-19.71Zm108.83-4.3c3-4.02 6.06-8.16 9.18-12.6 3.12-4.56 6.78-10.14 8.7-14.52-12 .24-22.32.72-31.8 1.08l.12-10.68c7.74-.78 15.78-.96 23.46-1.14 7.32-.18 14.58-.18 21.66-.18.3 3.54.54 7.2-.06 10.98-2.82 6.18-5.76 12.48-9.36 18.3-3.66 5.82-8.64 12-12.96 17.1l-8.94-8.34ZM20 73.75c2.05-2.86 4.77-6.92 6.54-10.1 1.7-3.17 3.5-6.12 5.25-9.36-2.09-.59-10.54-3.49-13.64-4.66l4.13-9.97c3.07.63 10.82 2.91 13.51 3.41 1.68-3.29 3.21-6.8 4.67-10 1.41-3.13 2.46-6.14 3.32-9.67l10.64 2.14c-.88 3.41-2.02 7.83-3.19 10.92-1.32 3.3-2.81 6.68-3.95 9.95 3.16 1.22 9.38 2.64 12.74 3.95l-3.87 10.48C53.32 60.18 45.7 58 42.82 57.4c-2.41 4.13-4.2 7.5-6.45 10.69-2.25 3.19-4.91 7.61-7.63 10.51l-8.75-4.86Z" class="cls-32"/><path d="M25.23 37.59c-.07-2.59 1.79-8.13 3.99-9.62.8-.54 5.07 2.38 5.07 2.38s-.62.81-1.54 2.08c-1.02 1.41-2.36 3.32-2.86 3.95-.94 1.2-3.07 3.69-3.07 3.69s-1.58-1.81-1.6-2.48Z" class="cls-14"/><path d="m30.39 35.75 3.91-2.82s.52-2.24-.01-2.58m.01 2.58s1.26-.7 1.55-.49c.24.18.68 1.31 1.08 2.48.27.8.53 1.51.74 2.84.13.8-1.58 1.52-2.67 1.92-2.13.77-4.28.96-7.32 1.65-.4.09-.84-1.26-.84-1.26" class="cls-14"/><path d="M36.85 34.71s1.9-.01 5.19-1.9c2.51-1.44 2.35-1.4 2.35-1.4s-.48 1.46-.68 1.95c-.24.6-1.09 2.42-1.09 2.42s1.27.51 2.31.74c.74.16 3.01.34 3.01.34s-2.34 1.66-8.4 3.5c-8.71 2.63-11.93.7-11.93.7s1.76-.38 3.46-1.14c1.7-.77 3.39-1.84 4.67-2.25.96-.3 1.93.09 1.93.09m-12.44-.17s2.59-4.76 3.22-6.21c.87-2 .77-3.41.77-3.41m-7.25 12.11c-2.51-.67-8.32-.15-10.28 1.64-.71.65 1.13 5.49 1.13 5.49s.94-.41 2.38-1.01c1.61-.66 3.78-1.53 4.51-1.86 1.39-.63 4.3-2.13 4.3-2.13s-1.39-1.96-2.04-2.13Zm-2.99 4.59-3.65 3.15s-2.3-.02-2.51-.61m2.51.61s-1.06.98-.83 1.39c.25.46 1.11.96 2.16 1.62.71.45 1.35.87 2.59 1.38.75.31 1.85-1.18 2.49-2.15 1.25-1.89 1.92-3.94 3.31-6.74.18-.37-1.03-1.11-1.03-1.11" class="cls-14"/><path d="M16.47 50.71s-.46 1.85-3.06 4.6c-1.99 2.1-1.39 1.78-1.39 1.78s1.53-.13 2.06-.21c.64-.1 2.61-.49 2.61-.49s.2 1.36.18 2.42c-.01.76-.37 3.01-.37 3.01s1.64-1.71 4.83-7.18c4.59-7.86 3.45-11.44 3.45-11.44s-.78 1.62-1.92 3.09c-1.14 1.47-2.71 2.72-3.27 4.02-.4.93-.36 1.9-.36 1.9m-7.54-10.49s1.36.43 3.5.05c1.55-.28 6.78-1.69 6.78-1.69s.46-.89 1.35-1.6c1.06-.85 1.91-.89 1.91-.89m-.19 5.73s.73-.28 1.5-.89c.8-.63 1.13-1.1 1.13-1.1" class="cls-14"/><path fill="#f4bad4" stroke="#f4bad4" stroke-linejoin="round" stroke-width="8" d="M18.09 31.18c-.02.22-.11.49-.28.83-.17.33-.41.65-.71.96-.34.35-.7.6-1.07.76-.37.16-.7.19-.99.11-.43-.14-.98-.35-1.65-.62-.67-.27-1.41-.58-2.23-.94-.82-.36-1.65-.74-2.5-1.14-.85-.4-1.69-.81-2.49-1.23-.81-.42-1.53-.81-2.16-1.18-.01-.25.04-.53.16-.85s.31-.62.58-.89c.31-.32.64-.51.97-.57.34-.06.73.03 1.18.27 1.36.73 2.69 1.42 3.97 2.07 1.28.65 2.62 1.31 4 1.98l.07-.07c-.44-.85-.94-1.75-1.48-2.7-.54-.96-1.1-1.93-1.68-2.93-.58-1-1.16-1.97-1.76-2.9.07-.23.17-.45.3-.68.13-.22.3-.44.51-.65.32-.33.67-.53 1.03-.61.36-.08.71.05 1.03.37.19.19.45.54.77 1.05s.67 1.12 1.03 1.82c.37.7.74 1.45 1.11 2.23.37.78.72 1.53 1.04 2.26s.59 1.38.81 1.96c.22.58.36 1.01.43 1.3Zm2.03-12.29c.12.45.24.96.36 1.53s.26 1.16.4 1.77c.14.62.29 1.23.45 1.82l.66 1.79c.07.27.15.55.24.84.09.29.17.58.25.87.08.29.16.56.23.81s.14.49.21.71c-.12.12-.25.26-.39.4s-.33.29-.55.43c-.49.3-.92.44-1.29.43s-.66-.19-.87-.53c-.1-.15-.17-.32-.22-.5-.05-.18-.11-.39-.18-.63-.13-.45-.28-1.03-.45-1.76s-.36-1.5-.54-2.34c-.19-.84-.37-1.67-.56-2.51-.18-.83-.35-1.6-.49-2.3-.14-.7-.25-1.25-.32-1.65.11-.22.32-.48.62-.79.3-.31.63-.58.99-.8.51-.32 1.01-.53 1.5-.63.49-.1.89-.02 1.2.25.63.49 1.33 1.06 2.1 1.73.77.67 1.58 1.37 2.41 2.1.83.74 1.64 1.45 2.42 2.14.78.69 1.48 1.32 2.09 1.88-.03.22-.14.45-.33.7-.19.25-.45.48-.79.68-.5.31-.9.44-1.21.39s-.62-.22-.95-.51l-1.82-1.67-1.23-1.31c-.49-.44-.96-.87-1.43-1.28-.47-.41-.9-.8-1.31-1.17-.41-.37-.77-.69-1.09-.97l-.11.07Zm.66 5.22 4.18-2.58 1.66 1.89-5.59 3.45-.25-2.76Zm18.86-9.81 1.91 5.98c-.11.21-.31.41-.59.61-.28.19-.64.36-1.07.49-.45.14-.9.21-1.33.19-.43-.02-.85-.24-1.27-.66l-3.91-3.84c-.24-.26-.49-.51-.73-.76s-.47-.5-.7-.75c-.23-.25-.46-.51-.69-.77l-2.7 1.56-1.24-3.9c.1-.28.3-.54.59-.76.29-.23.64-.4 1.02-.52.45-.14.9-.21 1.34-.18s.86.24 1.26.66l3.94 3.86c.25.23.49.47.73.73s.47.51.7.77c.23.26.45.52.67.79l2.67-1.58-.61-1.9Zm-8.63.15c.23.54.45 1.09.66 1.64.21.55.39 1.09.56 1.61l.48 1.52 1.24 3.88c-.1.06-.27.15-.52.27s-.5.23-.77.31c-.57.18-1.01.21-1.32.09s-.54-.45-.7-.97l-2.38-7.46 2.75-.9Zm6.8 3.63c-.41-.96-.76-1.87-1.04-2.75-.29-.88-.56-1.72-.81-2.52l-1.08-3.38c.12-.07.31-.16.55-.29.24-.12.49-.22.76-.31.57-.18 1.01-.21 1.31-.09.3.13.53.45.69.97l2.37 7.44-2.75.92Zm8.59-8.29-6.42.78c-.1-.13-.2-.3-.29-.5-.1-.21-.16-.44-.19-.71-.05-.44 0-.79.18-1.03.17-.24.43-.38.76-.42l5.63-.68.33 2.56Zm-.01-.57 1.29 10.63c-.12.04-.32.1-.59.18-.27.08-.56.13-.85.17-.61.07-1.06.02-1.34-.17s-.46-.56-.52-1.1l-1.13-9.32 3.15-.38Zm-3.25-1.64 6.42-.78c.1.13.2.3.29.5.1.21.16.44.19.69.05.44 0 .79-.18 1.04-.17.25-.44.39-.78.43l-5.61.68-.33-2.56ZM56.2 9.77c-.18.44-.38.92-.62 1.44s-.48 1.08-.73 1.67c-.25.58-.49 1.16-.72 1.73l-.53 1.83c-.11.26-.21.53-.31.82-.1.29-.21.57-.31.85-.11.28-.21.54-.3.79s-.17.48-.25.7c-.17.03-.36.06-.56.09-.2.03-.43.04-.7.02-.57-.05-1-.19-1.29-.42s-.42-.55-.39-.94c.02-.18.05-.36.12-.54.06-.18.14-.38.23-.61.16-.44.39-1 .68-1.68s.61-1.42.95-2.21c.35-.79.69-1.57 1.04-2.35.35-.78.67-1.49.97-2.14.3-.65.54-1.16.73-1.52.22-.11.54-.2.97-.27.43-.07.85-.09 1.27-.05.6.05 1.13.18 1.58.39.45.21.73.51.82.91.22.76.44 1.64.66 2.64.23.99.45 2.04.69 3.12.23 1.09.46 2.14.67 3.16.22 1.02.4 1.94.56 2.76-.15.16-.38.28-.68.36-.3.09-.65.11-1.04.08-.59-.05-.99-.18-1.2-.41s-.36-.55-.46-.98l-.47-2.42-.21-1.79c-.13-.64-.26-1.27-.39-1.88-.13-.61-.25-1.18-.36-1.72-.11-.54-.21-1.01-.3-1.43h-.13Zm-2.57 4.59 4.9.41.21 2.5-6.55-.55 1.44-2.37Zm21.36 3.2-1.83 6.01c-.21.11-.49.17-.83.16-.34 0-.73-.07-1.16-.2-.46-.14-.86-.34-1.2-.6-.35-.26-.57-.68-.67-1.27l-1.04-5.39c-.05-.35-.11-.7-.17-1.04-.06-.34-.11-.68-.15-1.01-.04-.34-.09-.68-.13-1.03l-3.11-.24 1.19-3.92c.24-.18.55-.27.92-.29.37-.02.75.03 1.14.15.46.14.86.34 1.21.61s.57.69.66 1.25l1.05 5.41c.08.33.14.67.19 1.01.05.34.09.69.14 1.03.04.34.08.69.1 1.03l3.09.22.58-1.91Zm-7.19-4.78c-.12.58-.25 1.15-.39 1.72-.14.57-.3 1.12-.46 1.64l-.46 1.53-1.19 3.9c-.12 0-.31-.03-.58-.07s-.54-.1-.81-.18c-.58-.18-.95-.4-1.13-.67s-.19-.67-.03-1.19l2.28-7.49 2.78.82Zm3.53 6.85c.21-1.02.44-1.97.71-2.86.26-.89.52-1.73.76-2.53l1.03-3.39c.14.01.35.04.61.08.27.04.53.1.8.18.58.18.95.4 1.12.67.17.27.18.67.02 1.19l-2.28 7.47-2.78-.8Zm27.75 59.16c-.07.05-.16.1-.26.15s-.23.07-.37.08c-.19.01-.34 0-.47-.04-.13-.04-.21-.12-.26-.23-.24-.56-.44-1.02-.6-1.4-.16-.37-.29-.7-.39-.97h-.04c0 .38.01.73.02 1.05 0 .32.02.62.02.92 0 .29.02.6.02.91 0 .31.01.65.02 1.01-.07.02-.16.05-.27.07-.11.03-.21.05-.32.05-.23.01-.41-.01-.54-.08-.13-.07-.2-.2-.21-.39 0-.13-.01-.33-.02-.59v-4.12c.04-.07.14-.15.27-.24.14-.08.33-.13.59-.15.27-.02.49.01.65.09.17.08.29.21.38.4.1.22.21.46.33.74l.36.84c.12.28.23.54.33.78h.04c.14-.55.28-1.08.43-1.59.14-.51.27-.94.38-1.29.08-.05.18-.09.3-.12.13-.04.26-.06.41-.07.26-.02.47 0 .63.07.16.07.26.17.3.32.03.11.07.29.11.53s.09.52.14.84c.05.32.1.65.15 1 .05.35.1.69.15 1.01.05.33.09.62.12.89s.06.48.07.63c-.09.06-.18.1-.28.13-.1.03-.22.05-.37.06-.19.01-.35-.01-.49-.07-.14-.06-.23-.19-.25-.39-.05-.47-.1-.92-.14-1.34s-.08-.81-.12-1.17c-.03-.35-.06-.65-.09-.9h-.04c-.06.27-.15.6-.27 1-.12.4-.26.92-.43 1.55Zm4.93-3.4c.62-.04 1.12.06 1.51.3s.6.63.63 1.18l.12 2.04c0 .15-.02.27-.1.37s-.16.18-.27.26c-.17.12-.39.22-.65.29s-.56.12-.91.14c-.61.04-1.1-.05-1.48-.27-.38-.21-.58-.56-.61-1.03-.02-.41.08-.73.32-.96s.6-.39 1.1-.47l1.2-.2v-.11c-.02-.21-.11-.35-.28-.43-.17-.08-.39-.11-.68-.09-.23.01-.45.05-.67.12-.22.07-.41.15-.58.23-.08-.05-.14-.12-.19-.21-.05-.09-.08-.19-.09-.3-.02-.25.11-.44.37-.57.17-.08.37-.14.6-.19.23-.05.45-.08.67-.09Zm.27 3.6c.14 0 .27-.03.41-.07.13-.04.23-.08.29-.12l-.05-.86-.76.11c-.2.03-.36.09-.47.16-.11.08-.16.19-.16.33s.07.26.19.34c.12.08.3.11.56.1Zm2.69-4.89c-.01-.2.05-.38.18-.53.13-.15.31-.23.52-.24s.4.05.54.17c.15.13.23.3.24.5s-.05.37-.18.52c-.13.15-.3.23-.52.24s-.4-.05-.55-.18c-.15-.13-.23-.3-.24-.49Zm.32 3.86-.15-2.57c.06-.02.14-.04.25-.07.11-.02.22-.04.35-.05.25-.02.44.02.56.1.12.08.19.24.21.48l.12 2.03-1.33.08Zm1.29-.76.14 2.36c-.06.02-.14.03-.25.06-.11.02-.22.04-.35.05-.25.02-.44-.02-.56-.1-.12-.08-.19-.24-.2-.47l-.11-1.82 1.33-.08Zm3.79-1.64 1.32-.08.17 2.88c0 .14-.01.26-.07.36-.05.1-.14.2-.27.28-.16.12-.36.22-.62.32s-.55.15-.9.18c-.5.03-.93-.03-1.3-.17-.37-.15-.66-.38-.88-.71-.22-.33-.34-.74-.37-1.24s.04-.97.22-1.32c.18-.35.43-.62.76-.81.33-.19.7-.29 1.12-.32.22-.01.41 0 .58.04s.31.09.42.15l.07 1.1c-.09-.07-.2-.13-.34-.18-.14-.05-.3-.07-.48-.06-.22.01-.4.07-.56.16-.16.1-.27.24-.35.43-.08.19-.11.43-.09.73.03.42.14.72.34.91.2.19.47.27.79.25.14 0 .26-.03.35-.07s.18-.07.24-.11l-.16-2.71Zm.01.26-.14-2.34c.06-.02.14-.04.25-.07.11-.02.22-.04.34-.05.26-.02.45.02.57.1s.19.24.2.48l.11 1.8-1.33.08Zm115.59-34.06c-.03.13-.09.24-.18.33-.09.09-.19.15-.29.19-.13-.13-.28-.25-.45-.37-.17-.11-.38-.2-.63-.25-.32-.06-.6-.05-.86.04-.25.09-.47.25-.65.49-.18.24-.3.54-.38.91-.12.57-.06 1.03.17 1.38.23.35.58.58 1.07.68.26.05.49.06.68.03.2-.03.38-.08.55-.15.07.08.13.18.16.3.04.11.04.24.01.37-.02.12-.08.22-.16.3-.08.08-.2.15-.36.19-.12.04-.29.06-.51.08-.21.01-.47 0-.77-.07-.52-.11-.97-.3-1.35-.59-.38-.29-.66-.67-.82-1.14-.17-.47-.18-1.02-.06-1.66.12-.61.35-1.1.68-1.47.33-.37.72-.62 1.18-.76.46-.13.93-.15 1.43-.05.35.07.64.17.88.3.24.13.41.28.52.43.11.16.15.32.11.49Zm2.46.77c.61.12 1.06.35 1.38.68.31.33.42.76.31 1.3l-.41 2c-.03.15-.09.26-.19.33-.1.08-.2.14-.33.18-.2.07-.43.11-.71.11s-.58-.03-.91-.09c-.6-.12-1.05-.33-1.36-.64-.31-.3-.42-.69-.32-1.15.08-.4.27-.68.56-.85.29-.16.68-.22 1.18-.17l1.21.12.02-.11c.04-.21 0-.37-.15-.49s-.35-.21-.63-.27c-.22-.05-.45-.06-.68-.05-.23 0-.44.03-.62.08-.06-.07-.1-.15-.13-.26s-.03-.21 0-.31c.05-.25.22-.4.51-.46.18-.03.39-.04.63-.03.23.01.46.04.67.08Zm-.67 3.55c.14.03.27.04.41.04.14 0 .24-.02.31-.04l.17-.85-.76-.09c-.2-.02-.37-.01-.5.04s-.21.14-.24.28c-.03.15 0 .27.1.38.09.11.27.19.51.24Zm4.79-1.65-.67 3.34h-.25c-.11 0-.23-.02-.35-.04-.25-.05-.42-.13-.52-.24-.1-.11-.12-.28-.08-.51l.57-2.8 1.3.26Zm-.11.25-1.23-.25.25-1.24c.08-.39.23-.69.44-.89.21-.21.47-.34.78-.4.31-.06.63-.05.98.02.41.08.71.2.89.35s.25.35.2.59c-.02.1-.06.19-.12.26-.06.08-.13.13-.19.17-.1-.06-.21-.11-.34-.16s-.27-.1-.42-.13c-.28-.06-.5-.05-.66.02-.16.07-.27.23-.32.47l-.24 1.2Zm-.03-.89 1.72.35c.02.05.04.13.05.22s0 .19-.01.3c-.04.18-.1.3-.2.36-.1.07-.21.09-.36.06l-1.4-.28.2-1.01Zm2.7 2.16 2.27.1c.02-.17-.03-.34-.13-.51-.1-.16-.28-.27-.53-.32-.27-.05-.51-.01-.73.13-.21.14-.36.38-.43.72l-.09.61c0 .34.09.59.28.78.19.18.45.31.75.37.25.05.49.06.72.04.23-.02.42-.06.58-.12.07.07.13.16.17.26.04.11.05.21.03.32-.04.18-.14.31-.3.4-.16.09-.37.14-.63.15-.26 0-.54-.02-.85-.08-.45-.09-.84-.26-1.17-.5-.32-.24-.55-.56-.69-.94-.14-.38-.15-.83-.05-1.34.08-.38.2-.69.37-.94.17-.25.38-.45.62-.59.24-.14.5-.23.77-.26.27-.04.55-.03.83.03.4.08.74.24 1.01.46.27.22.46.49.58.8.12.31.14.65.06 1.01-.04.18-.11.31-.23.38-.12.07-.27.1-.45.1l-2.89-.15.13-.89Z"/><path d="M159.88 18.38c.12.28.08.86 0 1.15-.67 2.81-2.08 8.57-2.79 11.53-.09.36-.58 1.01-.92 1.15-2.02.85-6.94-.68-8.47-2.24-.24-.24-.32-1.02-.24-1.35.71-2.91 2.13-8.61 2.83-11.46.07-.29.47-.76.66-.99.51-.58 1.58-1.36 4.68-.59 3.13.77 3.68 1.43 4.25 2.79ZM50.66 71.5c.26.16.56.65.68.93 1.1 2.67 3.32 8.17 4.48 10.99.14.34.11 1.16-.08 1.47-1.14 1.87-6.02 3.51-8.18 3.14-.34-.06-.85-.64-.98-.96-1.13-2.77-3.3-8.23-4.4-10.95-.11-.28-.07-.89-.04-1.19.07-.77.49-2.02 3.45-3.22s3.82-.99 5.08-.22Z" class="cls-14"/><circle cx="66.09" cy="38.95" r="2.79" class="cls-14"/><circle cx="60.69" cy="43.68" r="1.93" class="cls-14"/><circle cx="54.79" cy="44.67" r="1.45" class="cls-14"/><circle cx="216.2" cy="40.03" r="1.39" class="cls-14"/><circle cx="219.8" cy="36.37" r="1.93" class="cls-14"/><circle cx="226" cy="34.01" r="2.91" class="cls-14"/><path d="M165.52 27.25c5.83-.39 5.8-.44 8.55-.54 6.26-.24 6.18-.26 13.38-.4 5.28-.1 5.28-.23 12.85-.33 8.76-.11 9.28-.76 9.39.8q-.24-3.21-1.48-6.71-.57-1.63-1.22-1.83c-2.19-.71-4.66 5.89-4.86 5.69-.98-1.02 3.34-12.93-1.68-14.26-6.28-1.66-4.38 11.91-6.1 11.37-4.85-1.51.36-14.5-7.12-14.54-7.4-.04-3.41 12.57-7.76 14.08-1.85.65.68-12.56-4.53-11.54-5.38 1.06-3.12 15.71-3.8 15.73-.51.01-2-6.88-3.74-6.85-.42 0-.68.13-1.16 1.72s-.68 2.71-.73 7.62Z" class="cls-10"/><path d="M171.35 12.9s-.89 1.87-2.08 3.1c-1.02 1.06-2.49 1.49-2.45 1.51.64.38 1.21.97 2.1 2.3s1.94 3.37 2.02 3.29c.11-.11-.02-2.39-.04-5.88-.02-2.65.47-4.3.46-4.32Zm32.01 1.17s-.21 1.64.76 2.92c.73.98 2.26.78 2.22.8-1.09.51-1.16 1.18-2.06 2.5-.92 1.36-2.29 3.27-2.36 3.19-.1-.11.74-1.74.85-5.23.09-2.65.57-4.16.59-4.19ZM184.1 7.09c-.7.18-.8.91-4.13 2.56-1.21.6-3.31-.97-3.27-.84.28.97 2.09 5 2.06 6.6-.06 3.5.61 6.16.72 4.83.01-.15 2.01.06 2.58-7.47.33-4.31 2.06-5.7 2.04-5.69Zm6.07-.05c1.06.95 2.05 2.37 3.99 3.12 1.42.55 4.07-.91 3.94-.84-1.05.58-1.88 2.45-2.6 6.64-.59 3.45-.78 4.71-1.07 4.81-.24.08-2.33 0-2.79-7.54-.26-4.32-1.5-6.22-1.47-6.19ZM157.39 82.1c.53-3.82 1.02-8 1.39-11.73.41-4.35.78-8.93.62-12.97-2.64.16-5.79.57-9.43 1.46-.14 5.04-.27 8.2-.48 13.13-.47 4.36-.52 9.08-1.09 13.15l-10.83.91c.51-5.39.74-9.71.85-13.54.24-4.21.42-7.49.53-11.8-3.55.64-6.42 1.31-9.51 1.77l-1.17-10.5c3.16-.83 6.81-1.61 10.61-2.16.1-3.94-.08-8.58-.51-12.4l10.77-1.39c.31 3.83.58 7.79.55 11.79 1.73-.22 6.09-.66 10.44-1.11 4.66-.48 8.31-.77 10-.81 0 0 1.13 4.57.85 8.9-.24 4.69-.24 8.92-.73 12.19-.77 5.3-1.3 10.51-2.65 16.49l-10.22-1.4Zm46.95-15.73c3.88.47 10 1.36 12.82 1.94l2.4-12.67c-3.19-.59-6.8-1.19-11-1.91l1.87-8.14c9.68 1.42 19.34 3.32 29.11 5.55l-1.66 7.69c-3.42-.63-6.68-1.17-10.28-1.83l-2.4 12.67c4.39.99 8.2 1.51 11.72 2.28l-1.39 7.86c-10.93-1.95-21.68-3.87-32.63-6.02l1.43-7.42Z" class="cls-26"/><path d="M94.96 72.82c.2-16.49-.22-33.09.1-49.39l11.64-.66c.22 6.81.43 13.13.75 18.21 4.03.44 14.48 3.33 18.66 5.06.11 3.47-.03 6.63-.23 9.73-4.6-.74-13.98-2.47-18.69-2.77-.06 8.61-.3 13.95-.28 19.21l-11.95.6Z" class="cls-10"/><path d="m117.49 27.87-1.77 3.71-3.71-1.77m16.27-1.08-1.77 3.71-3.71-1.77" class="cls-10"/><path d="M69.99 68.4c-3.03 2.11-9.45 5.52-11.53 6.98l-4.54-8.02c7.48-4.6 11.95-7.75 17.29-11.89 4.64-3.67 9.97-8.14 13.95-12.28l7.14 6.35c-2.86 3.88-7.99 8.1-11.45 11.47l.13 1.27c-.6 4.74-2.5 22.52-3.24 26.53l-9.98-.72c.8-6.47 1.73-13.04 2.23-19.71Zm108.83-4.3c3-4.02 6.06-8.16 9.18-12.6 3.12-4.56 6.78-10.14 8.7-14.52-12 .24-22.32.72-31.8 1.08l.12-10.68c7.74-.78 15.78-.96 23.46-1.14 7.32-.18 14.58-.18 21.66-.18.3 3.54.54 7.2-.06 10.98-2.82 6.18-5.76 12.48-9.36 18.3-3.66 5.82-8.64 12-12.96 17.1l-8.94-8.34ZM20 73.75c2.05-2.86 4.77-6.92 6.54-10.1 1.7-3.17 3.5-6.12 5.25-9.36-2.09-.59-10.54-3.49-13.64-4.66l4.13-9.97c3.07.63 10.82 2.91 13.51 3.41 1.68-3.29 3.21-6.8 4.67-10 1.41-3.13 2.46-6.14 3.32-9.67l10.64 2.14c-.88 3.41-2.02 7.83-3.19 10.92-1.32 3.3-2.81 6.68-3.95 9.95 3.16 1.22 9.38 2.64 12.74 3.95l-3.87 10.48C53.32 60.18 45.7 58 42.82 57.4c-2.41 4.13-4.2 7.5-6.45 10.69-2.25 3.19-4.91 7.61-7.63 10.51l-8.75-4.86Z" class="cls-26"/><path d="M25.23 37.59c-.07-2.59 1.79-8.13 3.99-9.62.8-.54 5.07 2.38 5.07 2.38s-.62.81-1.54 2.08c-1.02 1.41-2.36 3.32-2.86 3.95-.94 1.2-3.07 3.69-3.07 3.69s-1.58-1.81-1.6-2.48Z" class="cls-10"/><path d="m30.39 35.75 3.91-2.82s.52-2.24-.01-2.58m.01 2.58s1.26-.7 1.55-.49c.24.18.68 1.31 1.08 2.48.27.8.53 1.51.74 2.84.13.8-1.58 1.52-2.67 1.92-2.13.77-4.28.96-7.32 1.65-.4.09-.84-1.26-.84-1.26" class="cls-10"/><path d="M36.85 34.71s1.9-.01 5.19-1.9c2.51-1.44 2.35-1.4 2.35-1.4s-.48 1.46-.68 1.95c-.24.6-1.09 2.42-1.09 2.42s1.27.51 2.31.74c.74.16 3.01.34 3.01.34s-2.34 1.66-8.4 3.5c-8.71 2.63-11.93.7-11.93.7s1.76-.38 3.46-1.14c1.7-.77 3.39-1.84 4.67-2.25.96-.3 1.93.09 1.93.09m-12.44-.17s2.59-4.76 3.22-6.21c.87-2 .77-3.41.77-3.41m-7.25 12.11c-2.51-.67-8.32-.15-10.28 1.64-.71.65 1.13 5.49 1.13 5.49s.94-.41 2.38-1.01c1.61-.66 3.78-1.53 4.51-1.86 1.39-.63 4.3-2.13 4.3-2.13s-1.39-1.96-2.04-2.13Zm-2.99 4.59-3.65 3.15s-2.3-.02-2.51-.61m2.51.61s-1.06.98-.83 1.39c.25.46 1.11.96 2.16 1.62.71.45 1.35.87 2.59 1.38.75.31 1.85-1.18 2.49-2.15 1.25-1.89 1.92-3.94 3.31-6.74.18-.37-1.03-1.11-1.03-1.11" class="cls-10"/><path d="M16.47 50.71s-.46 1.85-3.06 4.6c-1.99 2.1-1.39 1.78-1.39 1.78s1.53-.13 2.06-.21c.64-.1 2.61-.49 2.61-.49s.2 1.36.18 2.42c-.01.76-.37 3.01-.37 3.01s1.64-1.71 4.83-7.18c4.59-7.86 3.45-11.44 3.45-11.44s-.78 1.62-1.92 3.09-2.71 2.72-3.27 4.02c-.4.93-.36 1.9-.36 1.9m-7.54-10.49s1.36.43 3.5.05c1.55-.28 6.78-1.69 6.78-1.69s.46-.89 1.35-1.6c1.06-.85 1.91-.89 1.91-.89m-.19 5.73s.73-.28 1.5-.89c.8-.63 1.13-1.1 1.13-1.1" class="cls-10"/><path fill="#fff" stroke="#fff" stroke-linejoin="round" stroke-width="5" d="M18.09 31.18c-.02.22-.11.49-.28.83-.17.33-.41.65-.71.96-.34.35-.7.6-1.07.76-.37.16-.7.19-.99.11-.43-.14-.98-.35-1.65-.62-.67-.27-1.41-.58-2.23-.94-.82-.36-1.65-.74-2.5-1.14-.85-.4-1.69-.81-2.49-1.23-.81-.42-1.53-.81-2.16-1.18-.01-.25.04-.53.16-.85s.31-.62.58-.89c.31-.32.64-.51.97-.57.34-.06.73.03 1.18.27 1.36.73 2.69 1.42 3.97 2.07 1.28.65 2.62 1.31 4 1.98l.07-.07c-.44-.85-.94-1.75-1.48-2.7-.54-.96-1.1-1.93-1.68-2.93-.58-1-1.16-1.97-1.76-2.9.07-.23.17-.45.3-.68.13-.22.3-.44.51-.65.32-.33.67-.53 1.03-.61.36-.08.71.05 1.03.37.19.19.45.54.77 1.05s.67 1.12 1.03 1.82c.37.7.74 1.45 1.11 2.23.37.78.72 1.53 1.04 2.26s.59 1.38.81 1.96c.22.58.36 1.01.43 1.3Zm2.03-12.29c.12.45.24.96.36 1.53s.26 1.16.4 1.77c.14.62.29 1.23.45 1.82l.66 1.79c.07.27.15.55.24.84.09.29.17.58.25.87.08.29.16.56.23.81s.14.49.21.71c-.12.12-.25.26-.39.4s-.33.29-.55.43c-.49.3-.92.44-1.29.43s-.66-.19-.87-.53c-.1-.15-.17-.32-.22-.5-.05-.18-.11-.39-.18-.63-.13-.45-.28-1.03-.45-1.76s-.36-1.5-.54-2.34c-.19-.84-.37-1.67-.56-2.51-.18-.83-.35-1.6-.49-2.3-.14-.7-.25-1.25-.32-1.65.11-.22.32-.48.62-.79.3-.31.63-.58.99-.8.51-.32 1.01-.53 1.5-.63.49-.1.89-.02 1.2.25.63.49 1.33 1.06 2.1 1.73.77.67 1.58 1.37 2.41 2.1.83.74 1.64 1.45 2.42 2.14.78.69 1.48 1.32 2.09 1.88-.03.22-.14.45-.33.7-.19.25-.45.48-.79.68-.5.31-.9.44-1.21.39s-.62-.22-.95-.51l-1.82-1.67-1.23-1.31c-.49-.44-.96-.87-1.43-1.28-.47-.41-.9-.8-1.31-1.17-.41-.37-.77-.69-1.09-.97l-.11.07Zm.66 5.22 4.18-2.58 1.66 1.89-5.59 3.45-.25-2.76Zm18.86-9.81 1.91 5.98c-.11.21-.31.41-.59.61-.28.19-.64.36-1.07.49-.45.14-.9.21-1.33.19-.43-.02-.85-.24-1.27-.66l-3.91-3.84c-.24-.26-.49-.51-.73-.76s-.47-.5-.7-.75c-.23-.25-.46-.51-.69-.77l-2.7 1.56-1.24-3.9c.1-.28.3-.54.59-.76.29-.23.64-.4 1.02-.52.45-.14.9-.21 1.34-.18s.86.24 1.26.66l3.94 3.86c.25.23.49.47.73.73s.47.51.7.77c.23.26.45.52.67.79l2.67-1.58-.61-1.9Zm-8.63.15c.23.54.45 1.09.66 1.64.21.55.39 1.09.56 1.61s.33 1.03.48 1.52l1.24 3.88c-.1.06-.27.15-.52.27s-.5.23-.77.31c-.57.18-1.01.21-1.32.09s-.54-.45-.7-.97l-2.38-7.46 2.75-.9Zm6.8 3.63c-.41-.96-.76-1.87-1.04-2.75-.29-.88-.56-1.72-.81-2.52l-1.08-3.38c.12-.07.31-.16.55-.29.24-.12.49-.22.76-.31.57-.18 1.01-.21 1.31-.09.3.13.53.45.69.97l2.37 7.44-2.75.92Zm8.59-8.29-6.42.78c-.1-.13-.2-.3-.29-.5-.1-.21-.16-.44-.19-.71-.05-.44 0-.79.18-1.03.17-.24.43-.38.76-.42l5.63-.68.33 2.56Zm-.01-.57 1.29 10.63c-.12.04-.32.1-.59.18-.27.08-.56.13-.85.17-.61.07-1.06.02-1.34-.17s-.46-.56-.52-1.1l-1.13-9.32 3.15-.38Zm-3.25-1.64 6.42-.78c.1.13.2.3.29.5.1.21.16.44.19.69.05.44 0 .79-.18 1.04-.17.25-.44.39-.78.43l-5.61.68-.33-2.56ZM56.2 9.77c-.18.44-.38.92-.62 1.44s-.48 1.08-.73 1.67c-.25.58-.49 1.16-.72 1.73l-.53 1.83c-.11.26-.21.53-.31.82-.1.29-.21.57-.31.85-.11.28-.21.54-.3.79s-.17.48-.25.7c-.17.03-.36.06-.56.09-.2.03-.43.04-.7.02-.57-.05-1-.19-1.29-.42s-.42-.55-.39-.94c.02-.18.05-.36.12-.54.06-.18.14-.38.23-.61.16-.44.39-1 .68-1.68s.61-1.42.95-2.21c.35-.79.69-1.57 1.04-2.35.35-.78.67-1.49.97-2.14.3-.65.54-1.16.73-1.52.22-.11.54-.2.97-.27.43-.07.85-.09 1.27-.05.6.05 1.13.18 1.58.39.45.21.73.51.82.91.22.76.44 1.64.66 2.64.23.99.45 2.04.69 3.12.23 1.09.46 2.14.67 3.16.22 1.02.4 1.94.56 2.76-.15.16-.38.28-.68.36-.3.09-.65.11-1.04.08-.59-.05-.99-.18-1.2-.41s-.36-.55-.46-.98l-.47-2.42-.21-1.79c-.13-.64-.26-1.27-.39-1.88-.13-.61-.25-1.18-.36-1.72-.11-.54-.21-1.01-.3-1.43h-.13Zm-2.57 4.59 4.9.41.21 2.5-6.55-.55 1.44-2.37Zm21.36 3.2-1.83 6.01c-.21.11-.49.17-.83.16-.34 0-.73-.07-1.16-.2-.46-.14-.86-.34-1.2-.6-.35-.26-.57-.68-.67-1.27l-1.04-5.39c-.05-.35-.11-.7-.17-1.04-.06-.34-.11-.68-.15-1.01-.04-.34-.09-.68-.13-1.03l-3.11-.24 1.19-3.92c.24-.18.55-.27.92-.29.37-.02.75.03 1.14.15.46.14.86.34 1.21.61s.57.69.66 1.25l1.05 5.41c.08.33.14.67.19 1.01.05.34.09.69.14 1.03.04.34.08.69.1 1.03l3.09.22.58-1.91Zm-7.19-4.78c-.12.58-.25 1.15-.39 1.72-.14.57-.3 1.12-.46 1.64l-.46 1.53-1.19 3.9c-.12 0-.31-.03-.58-.07s-.54-.1-.81-.18c-.58-.18-.95-.4-1.13-.67s-.19-.67-.03-1.19l2.28-7.49 2.78.82Zm3.53 6.85c.21-1.02.44-1.97.71-2.86.26-.89.52-1.73.76-2.53l1.03-3.39c.14.01.35.04.61.08.27.04.53.1.8.18.58.18.95.4 1.12.67.17.27.18.67.02 1.19l-2.28 7.47-2.78-.8Zm27.75 59.16c-.07.05-.16.1-.26.15s-.23.07-.37.08c-.19.01-.34 0-.47-.04-.13-.04-.21-.12-.26-.23-.24-.56-.44-1.02-.6-1.4-.16-.37-.29-.7-.39-.97h-.04c0 .38.01.73.02 1.05 0 .32.02.62.02.92 0 .29.02.6.02.91 0 .31.01.65.02 1.01-.07.02-.16.05-.27.07-.11.03-.21.05-.32.05-.23.01-.41-.01-.54-.08-.13-.07-.2-.2-.21-.39 0-.13-.01-.33-.02-.59v-4.12c.04-.07.14-.15.27-.24.14-.08.33-.13.59-.15.27-.02.49.01.65.09.17.08.29.21.38.4.1.22.21.46.33.74l.36.84c.12.28.23.54.33.78h.04c.14-.55.28-1.08.43-1.59.14-.51.27-.94.38-1.29.08-.05.18-.09.3-.12.13-.04.26-.06.41-.07.26-.02.47 0 .63.07.16.07.26.17.3.32.03.11.07.29.11.53s.09.52.14.84c.05.32.1.65.15 1 .05.35.1.69.15 1.01.05.33.09.62.12.89s.06.48.07.63c-.09.06-.18.1-.28.13-.1.03-.22.05-.37.06-.19.01-.35-.01-.49-.07-.14-.06-.23-.19-.25-.39-.05-.47-.1-.92-.14-1.34s-.08-.81-.12-1.17c-.03-.35-.06-.65-.09-.9h-.04c-.06.27-.15.6-.27 1-.12.4-.26.92-.43 1.55Zm4.93-3.4c.62-.04 1.12.06 1.51.3s.6.63.63 1.18l.12 2.04c0 .15-.02.27-.1.37s-.16.18-.27.26c-.17.12-.39.22-.65.29s-.56.12-.91.14c-.61.04-1.1-.05-1.48-.27-.38-.21-.58-.56-.61-1.03-.02-.41.08-.73.32-.96s.6-.39 1.1-.47l1.2-.2v-.11c-.02-.21-.11-.35-.28-.43-.17-.08-.39-.11-.68-.09-.23.01-.45.05-.67.12-.22.07-.41.15-.58.23-.08-.05-.14-.12-.19-.21-.05-.09-.08-.19-.09-.3-.02-.25.11-.44.37-.57.17-.08.37-.14.6-.19.23-.05.45-.08.67-.09Zm.27 3.6c.14 0 .27-.03.41-.07.13-.04.23-.08.29-.12l-.05-.86-.76.11c-.2.03-.36.09-.47.16-.11.08-.16.19-.16.33s.07.26.19.34c.12.08.3.11.56.1Zm2.69-4.89c-.01-.2.05-.38.18-.53.13-.15.31-.23.52-.24s.4.05.54.17c.15.13.23.3.24.5s-.05.37-.18.52c-.13.15-.3.23-.52.24s-.4-.05-.55-.18c-.15-.13-.23-.3-.24-.49Zm.32 3.86-.15-2.57c.06-.02.14-.04.25-.07.11-.02.22-.04.35-.05.25-.02.44.02.56.1.12.08.19.24.21.48l.12 2.03-1.33.08Zm1.29-.76.14 2.36c-.06.02-.14.03-.25.06-.11.02-.22.04-.35.05-.25.02-.44-.02-.56-.1-.12-.08-.19-.24-.2-.47l-.11-1.82 1.33-.08Zm3.79-1.64 1.32-.08.17 2.88c0 .14-.01.26-.07.36-.05.1-.14.2-.27.28-.16.12-.36.22-.62.32s-.55.15-.9.18c-.5.03-.93-.03-1.3-.17-.37-.15-.66-.38-.88-.71-.22-.33-.34-.74-.37-1.24s.04-.97.22-1.32c.18-.35.43-.62.76-.81.33-.19.7-.29 1.12-.32.22-.01.41 0 .58.04s.31.09.42.15l.07 1.1c-.09-.07-.2-.13-.34-.18-.14-.05-.3-.07-.48-.06-.22.01-.4.07-.56.16-.16.1-.27.24-.35.43-.08.19-.11.43-.09.73.03.42.14.72.34.91.2.19.47.27.79.25.14 0 .26-.03.35-.07s.18-.07.24-.11l-.16-2.71Zm.01.26-.14-2.34c.06-.02.14-.04.25-.07.11-.02.22-.04.34-.05.26-.02.45.02.57.1s.19.24.2.48l.11 1.8-1.33.08Zm115.59-34.06c-.03.13-.09.24-.18.33-.09.09-.19.15-.29.19-.13-.13-.28-.25-.45-.37-.17-.11-.38-.2-.63-.25-.32-.06-.6-.05-.86.04-.25.09-.47.25-.65.49-.18.24-.3.54-.38.91-.12.57-.06 1.03.17 1.38.23.35.58.58 1.07.68.26.05.49.06.68.03.2-.03.38-.08.55-.15.07.08.13.18.16.3.04.11.04.24.01.37-.02.12-.08.22-.16.3-.08.08-.2.15-.36.19-.12.04-.29.06-.51.08-.21.01-.47 0-.77-.07-.52-.11-.97-.3-1.35-.59-.38-.29-.66-.67-.82-1.14-.17-.47-.18-1.02-.06-1.66.12-.61.35-1.1.68-1.47.33-.37.72-.62 1.18-.76.46-.13.93-.15 1.43-.05.35.07.64.17.88.3.24.13.41.28.52.43.11.16.15.32.11.49Zm2.46.77c.61.12 1.06.35 1.38.68.31.33.42.76.31 1.3l-.41 2c-.03.15-.09.26-.19.33-.1.08-.2.14-.33.18-.2.07-.43.11-.71.11s-.58-.03-.91-.09c-.6-.12-1.05-.33-1.36-.64-.31-.3-.42-.69-.32-1.15.08-.4.27-.68.56-.85.29-.16.68-.22 1.18-.17l1.21.12.02-.11c.04-.21 0-.37-.15-.49s-.35-.21-.63-.27c-.22-.05-.45-.06-.68-.05-.23 0-.44.03-.62.08-.06-.07-.1-.15-.13-.26s-.03-.21 0-.31c.05-.25.22-.4.51-.46.18-.03.39-.04.63-.03.23.01.46.04.67.08Zm-.67 3.55c.14.03.27.04.41.04.14 0 .24-.02.31-.04l.17-.85-.76-.09c-.2-.02-.37-.01-.5.04s-.21.14-.24.28c-.03.15 0 .27.1.38.09.11.27.19.51.24Zm4.79-1.65-.67 3.34h-.25c-.11 0-.23-.02-.35-.04-.25-.05-.42-.13-.52-.24-.1-.11-.12-.28-.08-.51l.57-2.8 1.3.26Zm-.11.25-1.23-.25.25-1.24c.08-.39.23-.69.44-.89.21-.21.47-.34.78-.4.31-.06.63-.05.98.02.41.08.71.2.89.35s.25.35.2.59c-.02.1-.06.19-.12.26-.06.08-.13.13-.19.17-.1-.06-.21-.11-.34-.16s-.27-.1-.42-.13c-.28-.06-.5-.05-.66.02-.16.07-.27.23-.32.47l-.24 1.2Zm-.03-.89 1.72.35c.02.05.04.13.05.22s0 .19-.01.3c-.04.18-.1.3-.2.36-.1.07-.21.09-.36.06l-1.4-.28.2-1.01Zm2.7 2.16 2.27.1c.02-.17-.03-.34-.13-.51-.1-.16-.28-.27-.53-.32-.27-.05-.51-.01-.73.13-.21.14-.36.38-.43.72l-.09.61c0 .34.09.59.28.78.19.18.45.31.75.37.25.05.49.06.72.04.23-.02.42-.06.58-.12.07.07.13.16.17.26.04.11.05.21.03.32-.04.18-.14.31-.3.4-.16.09-.37.14-.63.15-.26 0-.54-.02-.85-.08-.45-.09-.84-.26-1.17-.5-.32-.24-.55-.56-.69-.94-.14-.38-.15-.83-.05-1.34.08-.38.2-.69.37-.94.17-.25.38-.45.62-.59.24-.14.5-.23.77-.26.27-.04.55-.03.83.03.4.08.74.24 1.01.46.27.22.46.49.58.8.12.31.14.65.06 1.01-.04.18-.11.31-.23.38-.12.07-.27.1-.45.1l-2.89-.15.13-.89Z"/><path d="M159.88 18.38c.12.28.08.86 0 1.15-.67 2.81-2.08 8.57-2.79 11.53-.09.36-.58 1.01-.92 1.15-2.02.85-6.94-.68-8.47-2.24-.24-.24-.32-1.02-.24-1.35.71-2.91 2.13-8.61 2.83-11.46.07-.29.47-.76.66-.99.51-.58 1.58-1.36 4.68-.59 3.13.77 3.68 1.43 4.25 2.79ZM50.66 71.5c.26.16.56.65.68.93 1.1 2.67 3.32 8.17 4.48 10.99.14.34.11 1.16-.08 1.47-1.14 1.87-6.02 3.51-8.18 3.14-.34-.06-.85-.64-.98-.96-1.13-2.77-3.3-8.23-4.4-10.95-.11-.28-.07-.89-.04-1.19.07-.77.49-2.02 3.45-3.22s3.82-.99 5.08-.22Z" class="cls-10"/><circle cx="216.2" cy="40.03" r="1.39" class="cls-10"/><circle cx="219.8" cy="36.37" r="1.93" class="cls-10"/><circle cx="66.09" cy="38.95" r="2.79" class="cls-10"/><circle cx="60.69" cy="43.68" r="1.93" class="cls-10"/><circle cx="54.79" cy="44.67" r="1.45" class="cls-10"/><circle cx="226" cy="34.01" r="2.91" class="cls-10"/><path d="M157.39 82.1c.53-3.82 1.02-8 1.39-11.73.41-4.35.78-8.93.62-12.97-2.64.16-5.79.57-9.43 1.46-.14 5.04-.27 8.2-.48 13.13-.47 4.36-.52 9.08-1.09 13.15l-10.83.91c.51-5.39.74-9.71.85-13.54.24-4.21.42-7.49.53-11.8-3.55.64-6.42 1.31-9.51 1.77l-1.17-10.5c3.16-.83 6.81-1.61 10.61-2.16.1-3.94-.08-8.58-.51-12.4l10.77-1.39c.31 3.83.58 7.79.55 11.79 1.73-.22 6.09-.66 10.44-1.11 4.66-.48 8.31-.77 10-.81 0 0 1.13 4.57.85 8.9-.24 4.69-.24 8.92-.73 12.19-.77 5.3-1.3 10.51-2.65 16.49l-10.22-1.4Z" class="cls-34"/><path d="M145.95 38.54s.76-.23.89.04c.36.76.4 3.37.4 3.37m-.11 2.44h0m20.41 4.54s.7 3.56.69 5.47c0 1.8-.29 4.55-.29 4.55m-.33 2.45v.01" class="cls-7"/><path d="M204.34 66.37c3.88.47 10 1.36 12.82 1.94l2.4-12.67c-3.19-.59-6.8-1.19-11-1.91l1.87-8.14c9.68 1.42 19.34 3.32 29.11 5.55l-1.66 7.69c-3.42-.63-6.68-1.17-10.28-1.83l-2.4 12.67c4.39.99 8.2 1.51 11.72 2.28l-1.39 7.86c-10.93-1.95-21.68-3.87-32.63-6.02l1.43-7.42Z" class="cls-34"/><path d="M235.76 56.2h.01m-7.05-5.19s4.57.92 6.07 1.39c.53.16 1.78.54 1.78.54m.02 0s-.08.52-.12.69c-.03.14-.14.54-.14.54" class="cls-7"/><path d="M94.96 72.82c.2-16.49-.22-33.09.1-49.39l11.64-.66c.22 6.81.43 13.13.75 18.21 4.03.44 14.48 3.33 18.66 5.06.11 3.47-.03 6.63-.23 9.73-4.6-.74-13.98-2.47-18.69-2.77-.06 8.61-.3 13.95-.28 19.21l-11.95.6Z" class="cls-35"/><path d="M116.73 45.42s3.03.72 4.02 1.04c.83.27 2.79 1.17 2.79 1.17m0 0s.11.63.1.8.03.65.03.65m-.05 2.77h0" class="cls-7"/><path fill="#fff" stroke="#f4bad4" stroke-linecap="round" stroke-miterlimit="10" stroke-width="5" d="m117.49 27.87-1.77 3.71-3.71-1.77m16.27-1.08-1.77 3.71-3.71-1.77"/><path d="M69.99 68.4c-3.03 2.11-9.45 5.52-11.53 6.98l-4.54-8.02c7.48-4.6 11.95-7.75 17.29-11.89 4.64-3.67 9.97-8.14 13.95-12.28l7.14 6.35c-2.86 3.88-7.99 8.1-11.45 11.47l.13 1.27c-.6 4.74-2.5 22.52-3.24 26.53l-9.98-.72c.8-6.47 1.73-13.04 2.23-19.71Z" class="cls-34"/><path d="M88.8 49.83s-1.13 1.48-3.43 3.73c-1.83 1.79-3.39 2.99-3.39 2.99M80 58.05l.01.01m127.33-26.1s-.91 6.03-1.48 7.97c-.55 1.87-2.98 7.2-2.98 7.2m-1.37 2.42h0" class="cls-7"/><path d="M178.82 64.1c3-4.02 6.06-8.16 9.18-12.6 3.12-4.56 6.78-10.14 8.7-14.52-12 .24-22.32.72-31.8 1.08l.12-10.68c7.74-.78 15.78-.96 23.46-1.14 7.32-.18 14.58-.18 21.66-.18.3 3.54.54 7.2-.06 10.98-2.82 6.18-5.76 12.48-9.36 18.3-3.66 5.82-8.64 12-12.96 17.1l-8.94-8.34Z" class="cls-35"/><path d="M207.34 29.52s-.91 6.03-1.48 7.97c-.55 1.87-2.98 7.2-2.98 7.2m-1.37 2.42v.01" class="cls-7"/><path fill="#fff" stroke="#88d1f5" stroke-linecap="round" stroke-miterlimit="10" d="M165.52 27.25c5.83-.39 5.8-.44 8.55-.54 6.26-.24 6.18-.26 13.38-.4 5.28-.1 5.28-.23 12.85-.33 8.76-.11 9.28-.76 9.39.8q-.24-3.21-1.48-6.71-.57-1.63-1.22-1.83c-2.19-.71-4.66 5.89-4.86 5.69-.98-1.02 3.34-12.93-1.68-14.26-6.28-1.66-4.38 11.91-6.1 11.37-4.85-1.51.36-14.5-7.12-14.54-7.4-.04-3.41 12.57-7.76 14.08-1.85.65.68-12.56-4.53-11.54-5.38 1.06-3.12 15.71-3.8 15.73-.51.01-2-6.88-3.74-6.85-.42 0-.68.13-1.16 1.72s-.68 2.71-.73 7.62Z"/><path d="M171.35 12.9s-.89 1.87-2.08 3.1c-1.02 1.06-2.49 1.49-2.45 1.51.64.38 1.21.97 2.1 2.3.92 1.38 1.94 3.37 2.02 3.29.11-.11-.02-2.39-.04-5.88-.02-2.65.47-4.3.46-4.32Zm32.01 1.17s-.21 1.64.76 2.92c.73.98 2.26.78 2.22.8-1.09.51-1.16 1.18-2.06 2.5s-2.29 3.27-2.36 3.19c-.1-.11.74-1.74.85-5.23.09-2.65.57-4.16.59-4.19ZM184.1 7.09c-.7.18-.8.91-4.13 2.56-1.21.6-3.31-.97-3.27-.84.28.97 2.09 5 2.06 6.6-.06 3.5.61 6.16.72 4.83.01-.15 2.01.06 2.58-7.47.33-4.31 2.06-5.7 2.04-5.69Zm6.07-.05c1.06.95 2.05 2.37 3.99 3.12 1.42.55 4.07-.91 3.94-.84-1.05.58-1.88 2.45-2.6 6.64-.59 3.45-.78 4.71-1.07 4.81-.24.08-2.33 0-2.79-7.54-.26-4.32-1.5-6.22-1.47-6.19ZM20 73.75c2.05-2.86 4.77-6.92 6.54-10.1 1.7-3.17 3.5-6.12 5.25-9.36-2.09-.59-10.54-3.49-13.64-4.66l4.13-9.97c3.07.63 10.82 2.91 13.51 3.41 1.68-3.29 3.21-6.8 4.67-10 1.41-3.13 2.46-6.14 3.32-9.67l10.64 2.14c-.88 3.41-2.02 7.83-3.19 10.92-1.32 3.3-2.81 6.68-3.95 9.95 3.16 1.22 9.38 2.64 12.74 3.95l-3.87 10.48C53.32 60.18 45.7 58 42.82 57.4c-2.41 4.13-4.2 7.5-6.45 10.69-2.25 3.19-4.91 7.61-7.63 10.51l-8.75-4.86Z" class="cls-35"/><path d="M38.37 57.77s-1.74 3.42-3.75 6.67c-2.25 3.65-4 5.95-4 5.95m-1.65 2.1h.01" class="cls-7"/><path d="M20.12 18.89c.12.45.24.96.36 1.53s.26 1.16.4 1.77c.14.62.29 1.23.45 1.82l.66 1.79c.07.27.15.55.24.84.09.29.17.58.25.87.08.29.16.56.23.81s.14.49.21.71c-.12.12-.25.26-.39.4s-.33.29-.55.43c-.49.3-.92.44-1.29.43s-.66-.19-.87-.53c-.1-.15-.17-.32-.22-.5-.05-.18-.11-.39-.18-.63-.13-.45-.28-1.03-.45-1.76s-.36-1.5-.54-2.34c-.19-.84-.37-1.67-.56-2.51-.18-.83-.35-1.6-.49-2.3-.14-.7-.25-1.25-.32-1.65.11-.22.32-.48.62-.79.3-.31.63-.58.99-.8.51-.32 1.01-.53 1.5-.63.49-.1.89-.02 1.2.25.63.49 1.33 1.06 2.1 1.73.77.67 1.58 1.37 2.41 2.1.83.74 1.64 1.45 2.42 2.14.78.69 1.48 1.32 2.09 1.88-.03.22-.14.45-.33.7-.19.25-.45.48-.79.68-.5.31-.9.44-1.21.39s-.62-.22-.95-.51l-1.82-1.67-1.23-1.31c-.49-.44-.96-.87-1.43-1.28-.47-.41-.9-.8-1.31-1.17-.41-.37-.77-.69-1.09-.97l-.11.07Zm.66 5.22 4.18-2.58 1.66 1.89-5.59 3.45-.25-2.76Zm18.86-9.81 1.91 5.98c-.11.21-.31.41-.59.61-.28.19-.64.36-1.07.49-.45.14-.9.21-1.33.19-.43-.02-.85-.24-1.27-.66l-3.91-3.84c-.24-.26-.49-.51-.73-.76s-.47-.5-.7-.75c-.23-.25-.46-.51-.69-.77l-2.7 1.56-1.24-3.9c.1-.28.3-.54.59-.76.29-.23.64-.4 1.02-.52.45-.14.9-.21 1.34-.18s.86.24 1.26.66l3.94 3.86c.25.23.49.47.73.73s.47.51.7.77c.23.26.45.52.67.79l2.67-1.58-.61-1.9Zm-8.63.15c.23.54.45 1.09.66 1.64.21.55.39 1.09.56 1.61l.48 1.52 1.24 3.88c-.1.06-.27.15-.52.27s-.5.23-.77.31c-.57.18-1.01.21-1.32.09s-.54-.45-.7-.97l-2.38-7.46 2.75-.9Zm6.8 3.63c-.41-.96-.76-1.87-1.04-2.75-.29-.88-.56-1.72-.81-2.52l-1.08-3.38c.12-.07.31-.16.55-.29.24-.12.49-.22.76-.31.57-.18 1.01-.21 1.31-.09.3.13.53.45.69.97l2.37 7.44-2.75.92Zm8.59-8.29-6.42.78c-.1-.13-.2-.3-.29-.5-.1-.21-.16-.44-.19-.71-.05-.44 0-.79.18-1.03.17-.24.43-.38.76-.42l5.63-.68.33 2.56Zm-.01-.57 1.29 10.63c-.12.04-.32.1-.59.18-.27.08-.56.13-.85.17-.61.07-1.06.02-1.34-.17s-.46-.56-.52-1.1l-1.13-9.32 3.15-.38Zm-3.25-1.64 6.42-.78c.1.13.2.3.29.5.1.21.16.44.19.69.05.44 0 .79-.18 1.04-.17.25-.44.39-.78.43l-5.61.68-.33-2.56ZM56.2 9.77c-.18.44-.38.92-.62 1.44s-.48 1.08-.73 1.67c-.25.58-.49 1.16-.72 1.73l-.53 1.83c-.11.26-.21.53-.31.82-.1.29-.21.57-.31.85-.11.28-.21.54-.3.79s-.17.48-.25.7c-.17.03-.36.06-.56.09-.2.03-.43.04-.7.02-.57-.05-1-.19-1.29-.42s-.42-.55-.39-.94c.02-.18.05-.36.12-.54.06-.18.14-.38.23-.61.16-.44.39-1 .68-1.68s.61-1.42.95-2.21c.35-.79.69-1.57 1.04-2.35.35-.78.67-1.49.97-2.14.3-.65.54-1.16.73-1.52.22-.11.54-.2.97-.27.43-.07.85-.09 1.27-.05.6.05 1.13.18 1.58.39.45.21.73.51.82.91.22.76.44 1.64.66 2.64.23.99.45 2.04.69 3.12.23 1.09.46 2.14.67 3.16.22 1.02.4 1.94.56 2.76-.15.16-.38.28-.68.36-.3.09-.65.11-1.04.08-.59-.05-.99-.18-1.2-.41s-.36-.55-.46-.98l-.47-2.42-.21-1.79c-.13-.64-.26-1.27-.39-1.88-.13-.61-.25-1.18-.36-1.72-.11-.54-.21-1.01-.3-1.43h-.13Zm-2.57 4.59 4.9.41.21 2.5-6.55-.55 1.44-2.37Zm21.36 3.2-1.83 6.01c-.21.11-.49.17-.83.16-.34 0-.73-.07-1.16-.2-.46-.14-.86-.34-1.2-.6-.35-.26-.57-.68-.67-1.27l-1.04-5.39c-.05-.35-.11-.7-.17-1.04-.06-.34-.11-.68-.15-1.01-.04-.34-.09-.68-.13-1.03l-3.11-.24 1.19-3.92c.24-.18.55-.27.92-.29.37-.02.75.03 1.14.15.46.14.86.34 1.21.61s.57.69.66 1.25l1.05 5.41c.08.33.14.67.19 1.01.05.34.09.69.14 1.03.04.34.08.69.1 1.03l3.09.22.58-1.91Zm-7.19-4.78c-.12.58-.25 1.15-.39 1.72-.14.57-.3 1.12-.46 1.64l-.46 1.53-1.19 3.9c-.12 0-.31-.03-.58-.07s-.54-.1-.81-.18c-.58-.18-.95-.4-1.13-.67s-.19-.67-.03-1.19l2.28-7.49 2.78.82Zm3.53 6.85c.21-1.02.44-1.97.71-2.86.26-.89.52-1.73.76-2.53l1.03-3.39c.14.01.35.04.61.08.27.04.53.1.8.18.58.18.95.4 1.12.67.17.27.18.67.02 1.19l-2.28 7.47-2.78-.8Z" class="cls-36"/><path d="M99.08 78.79c-.07.05-.16.1-.26.15s-.23.07-.37.08c-.19.01-.34 0-.47-.04-.13-.04-.21-.12-.26-.23-.24-.56-.44-1.02-.6-1.4-.16-.37-.29-.7-.39-.97h-.04c0 .38.01.73.02 1.05 0 .32.02.62.02.92 0 .29.02.6.02.91 0 .31.01.65.02 1.01-.07.02-.16.05-.27.07-.11.03-.21.05-.32.05-.23.01-.41-.01-.54-.08-.13-.07-.2-.2-.21-.39 0-.13-.01-.33-.02-.59v-4.12c.04-.07.14-.15.27-.24.14-.08.33-.13.59-.15.27-.02.49.01.65.09.17.08.29.21.38.4.1.22.21.46.33.74l.36.84c.12.28.23.54.33.78h.04c.14-.55.28-1.08.43-1.59.14-.51.27-.94.38-1.29.08-.05.18-.09.3-.12.13-.04.26-.06.41-.07.26-.02.47 0 .63.07.16.07.26.17.3.32.03.11.07.29.11.53s.09.52.14.84c.05.32.1.65.15 1 .05.35.1.69.15 1.01.05.33.09.62.12.89s.06.48.07.63c-.09.06-.18.1-.28.13-.1.03-.22.05-.37.06-.19.01-.35-.01-.49-.07-.14-.06-.23-.19-.25-.39-.05-.47-.1-.92-.14-1.34s-.08-.81-.12-1.17c-.03-.35-.06-.65-.09-.9h-.04c-.06.27-.15.6-.27 1-.12.4-.26.92-.43 1.55Zm4.93-3.4c.62-.04 1.12.06 1.51.3s.6.63.63 1.18l.12 2.04c0 .15-.02.27-.1.37s-.16.18-.27.26c-.17.12-.39.22-.65.29s-.56.12-.91.14c-.61.04-1.1-.05-1.48-.27-.38-.21-.58-.56-.61-1.03-.02-.41.08-.73.32-.96s.6-.39 1.1-.47l1.2-.2v-.11c-.02-.21-.11-.35-.28-.43-.17-.08-.39-.11-.68-.09-.23.01-.45.05-.67.12-.22.07-.41.15-.58.23-.08-.05-.14-.12-.19-.21-.05-.09-.08-.19-.09-.3-.02-.25.11-.44.37-.57.17-.08.37-.14.6-.19.23-.05.45-.08.67-.09Zm.27 3.6c.14 0 .27-.03.41-.07.13-.04.23-.08.29-.12l-.05-.86-.76.11c-.2.03-.36.09-.47.16-.11.08-.16.19-.16.33s.07.26.19.34c.12.08.3.11.56.1Zm2.69-4.89c-.01-.2.05-.38.18-.53.13-.15.31-.23.52-.24s.4.05.54.17c.15.13.23.3.24.5s-.05.37-.18.52c-.13.15-.3.23-.52.24s-.4-.05-.55-.18c-.15-.13-.23-.3-.24-.49Zm.32 3.86-.15-2.57c.06-.02.14-.04.25-.07.11-.02.22-.04.35-.05.25-.02.44.02.56.1.12.08.19.24.21.48l.12 2.03-1.33.08Zm1.29-.76.14 2.36c-.06.02-.14.03-.25.06-.11.02-.22.04-.35.05-.25.02-.44-.02-.56-.1-.12-.08-.19-.24-.2-.47l-.11-1.82 1.33-.08Zm3.79-1.64 1.32-.08.17 2.88c0 .14-.01.26-.07.36-.05.1-.14.2-.27.28-.16.12-.36.22-.62.32s-.55.15-.9.18c-.5.03-.93-.03-1.3-.17-.37-.15-.66-.38-.88-.71-.22-.33-.34-.74-.37-1.24s.04-.97.22-1.32c.18-.35.43-.62.76-.81.33-.19.7-.29 1.12-.32.22-.01.41 0 .58.04s.31.09.42.15l.07 1.1c-.09-.07-.2-.13-.34-.18-.14-.05-.3-.07-.48-.06-.22.01-.4.07-.56.16-.16.1-.27.24-.35.43-.08.19-.11.43-.09.73.03.42.14.72.34.91.2.19.47.27.79.25.14 0 .26-.03.35-.07s.18-.07.24-.11l-.16-2.71Zm.01.26-.14-2.34c.06-.02.14-.04.25-.07.11-.02.22-.04.34-.05.26-.02.45.02.57.1s.19.24.2.48l.11 1.8-1.33.08Z" class="cls-34"/><path d="M227.97 41.76c-.03.13-.09.24-.18.33-.09.09-.19.15-.29.19-.13-.13-.28-.25-.45-.37-.17-.11-.38-.2-.63-.25-.32-.06-.6-.05-.86.04-.25.09-.47.25-.65.49-.18.24-.3.54-.38.91-.12.57-.06 1.03.17 1.38.23.35.58.58 1.07.68.26.05.49.06.68.03.2-.03.38-.08.55-.15.07.08.13.18.16.3.04.11.04.24.01.37-.02.12-.08.22-.16.3-.08.08-.2.15-.36.19-.12.04-.29.06-.51.08-.21.01-.47 0-.77-.07-.52-.11-.97-.3-1.35-.59-.38-.29-.66-.67-.82-1.14-.17-.47-.18-1.02-.06-1.66.12-.61.35-1.1.68-1.47.33-.37.72-.62 1.18-.76.46-.13.93-.15 1.43-.05.35.07.64.17.88.3.24.13.41.28.52.43.11.16.15.32.11.49Zm2.46.77c.61.12 1.06.35 1.38.68.31.33.42.76.31 1.3l-.41 2c-.03.15-.09.26-.19.33-.1.08-.2.14-.33.18-.2.07-.43.11-.71.11s-.58-.03-.91-.09c-.6-.12-1.05-.33-1.36-.64-.31-.3-.42-.69-.32-1.15.08-.4.27-.68.56-.85.29-.16.68-.22 1.18-.17l1.21.12.02-.11c.04-.21 0-.37-.15-.49s-.35-.21-.63-.27c-.22-.05-.45-.06-.68-.05-.23 0-.44.03-.62.08-.06-.07-.1-.15-.13-.26s-.03-.21 0-.31c.05-.25.22-.4.51-.46.18-.03.39-.04.63-.03.23.01.46.04.67.08Zm-.67 3.55c.14.03.27.04.41.04.14 0 .24-.02.31-.04l.17-.85-.76-.09c-.2-.02-.37-.01-.5.04s-.21.14-.24.28c-.03.15 0 .27.1.38.09.11.27.19.51.24Zm4.79-1.65-.67 3.34h-.25c-.11 0-.23-.02-.35-.04-.25-.05-.42-.13-.52-.24-.1-.11-.12-.28-.08-.51l.57-2.8 1.3.26Zm-.11.25-1.23-.25.25-1.24c.08-.39.23-.69.44-.89.21-.21.47-.34.78-.4.31-.06.63-.05.98.02.41.08.71.2.89.35s.25.35.2.59c-.02.1-.06.19-.12.26-.06.08-.13.13-.19.17-.1-.06-.21-.11-.34-.16s-.27-.1-.42-.13c-.28-.06-.5-.05-.66.02-.16.07-.27.23-.32.47l-.24 1.2Zm-.03-.89 1.72.35c.02.05.04.13.05.22s0 .19-.01.3c-.04.18-.1.3-.2.36-.1.07-.21.09-.36.06l-1.4-.28.2-1.01Zm2.7 2.16 2.27.1c.02-.17-.03-.34-.13-.51-.1-.16-.28-.27-.53-.32-.27-.05-.51-.01-.73.13-.21.14-.36.38-.43.72l-.09.61c0 .34.09.59.28.78.19.18.45.31.75.37.25.05.49.06.72.04.23-.02.42-.06.58-.12.07.07.13.16.17.26.04.11.05.21.03.32-.04.18-.14.31-.3.4-.16.09-.37.14-.63.15-.26 0-.54-.02-.85-.08-.45-.09-.84-.26-1.17-.5-.32-.24-.55-.56-.69-.94-.14-.38-.15-.83-.05-1.34.08-.38.2-.69.37-.94.17-.25.38-.45.62-.59.24-.14.5-.23.77-.26.27-.04.55-.03.83.03.4.08.74.24 1.01.46.27.22.46.49.58.8.12.31.14.65.06 1.01-.04.18-.11.31-.23.38-.12.07-.27.1-.45.1l-2.89-.15.13-.89Z" class="cls-35"/><path d="m159.67 14.78 1.01-1.56m-2.28.89.53-1.78m1.75 3.48 1.46-1.15m-2.26 3.72c.12.28.08.86 0 1.15-.67 2.81-2.08 8.57-2.79 11.53-.09.36-.58 1.01-.92 1.15-2.02.85-6.94-.68-8.47-2.24-.24-.24-.32-1.02-.24-1.35.71-2.91 2.13-8.61 2.83-11.46.07-.29.47-.76.66-.99.51-.58 1.58-1.36 4.68-.59s3.68 1.43 4.25 2.79Z" class="cls-21"/><path d="M150.95 16.17c-.19.79 2.94 2.08 4.08 2.36s4.48.69 4.7-.2" class="cls-21"/><path d="m152.85 32.02-2.93-.99s3.01-3.33 3.38-4.85c.43-1.73-.16-3.16.27-4.79.29-1.09 1.65-2.51 1.65-2.51l2.31.32s-2.04 1.43-2.21 3.23c-.26 2.71.45 3.75-.51 6.48-.64 1.84-1.97 3.11-1.97 3.11Z" class="cls-35"/><ellipse cx="154.92" cy="16.94" fill="none" stroke="#88d1f5" stroke-miterlimit="10" stroke-width=".5" rx=".55" ry="1.24" transform="rotate(-76.15 154.91573058 16.94452194)"/><path d="M158.36 17.84c-.06.23-.65.28-1.32.11s-1.22-.3-1.12-.71.65-.28 1.32-.11 1.17.48 1.12.71Z" class="cls-35"/><circle cx="66.09" cy="38.95" r="2.79" class="cls-12"/><circle cx="60.69" cy="43.68" r="1.93" class="cls-12"/><circle cx="54.79" cy="44.67" r="1.45" class="cls-12"/><circle cx="216.2" cy="40.03" r="1.39" class="cls-22"/><circle cx="219.8" cy="36.37" r="1.93" class="cls-22"/><circle cx="226" cy="34.01" r="2.91" class="cls-22"/><path d="M18.09 31.18c-.02.22-.11.49-.28.83-.17.33-.41.65-.71.96-.34.35-.7.6-1.07.76-.37.16-.7.19-.99.11-.43-.14-.98-.35-1.65-.62-.67-.27-1.41-.58-2.23-.94-.82-.36-1.65-.74-2.5-1.14-.85-.4-1.69-.81-2.49-1.23-.81-.42-1.53-.81-2.16-1.18-.01-.25.04-.53.16-.85s.31-.62.58-.89c.31-.32.64-.51.97-.57.34-.06.73.03 1.18.27 1.36.73 2.69 1.42 3.97 2.07 1.28.65 2.62 1.31 4 1.98l.07-.07c-.44-.85-.94-1.75-1.48-2.7-.54-.96-1.1-1.93-1.68-2.93-.58-1-1.16-1.97-1.76-2.9.07-.23.17-.45.3-.68.13-.22.3-.44.51-.65.32-.33.67-.53 1.03-.61.36-.08.71.05 1.03.37.19.19.45.54.77 1.05s.67 1.12 1.03 1.82c.37.7.74 1.45 1.11 2.23.37.78.72 1.53 1.04 2.26s.59 1.38.81 1.96c.22.58.36 1.01.43 1.3Z" class="cls-36"/><path d="M12.51 22.05s.39.38 1.45 2.38c.92 1.72 1.19 2.38 1.19 2.38m.4.88h0m5.71-10.5s.84.76 2.14 1.79c1.53 1.21 2.05 1.69 2.05 1.69m.66.6h0" class="cls-13"/><path d="M36.78 9.43s.47-.04.67.59c.24.77.81 2.65.88 2.91" class="cls-17"/><path d="M38.59 13.67h0" class="cls-13"/><path d="M45.46 8.08s2.87-.35 3.42-.35c.44 0 .37.12.37.12" class="cls-17"/><path d="M49.4 8.54h0" class="cls-13"/><path d="M55.95 7.88s1.52-.2 1.97.67c.33.65.59 2.1.59 2.1" class="cls-17"/><path d="M58.65 11.56h0" class="cls-13"/><path d="M67.21 9.61s1 0 1.63.83c.35.46.46 2.04.46 2.04" class="cls-17"/><path d="M69.41 13.41h0" class="cls-13"/><path d="M74.47 11.71s1.18.19 1.18.67c0 .39-.33 1.23-.33 1.23" class="cls-17"/><path d="M75.05 14.4h0" class="cls-13"/><path d="m19.21 52.25-4.75-3 .35-1.48s-1.7-.53-2.09-.95c-.55-.58-.89-2.26-1.02-3.05-.09-.5-.33-1.59-.04-2.01.7-1.03 3.45-1.5 4.68-1.71 1.1-.19 3.38-.27 4.49-.12.4.05 1.22.25 1.57.47.79.48 2.37 2.84 2.37 2.84l-5.54 9.01Zm18.4-14.52-1.82-5.32-1.42.2s-.19-1.94-.54-2.46c-.45-.67-1.99-1.39-2.73-1.7-.46-.2-1.47-.69-1.94-.51-1.17.44-2.26 3.01-2.75 4.15-.44 1.03-.9 3.24-1.02 4.35-.04.4-.05 1.62-.05 1.62l2.21 2.96 10.06-3.3Z" class="cls-15"/><path d="M24.87 44.11s-.75 5.06-3.34 10.17c-1.68 3.31-4.7 6.77-4.7 6.77l-.13-4.66-4.67.7s1.62-1.87 2.61-3.07c.82-.99 2.72-4.38 2.72-4.38l7.52-5.54Zm3.72-2.66s5.1.45 10.66-.89c3.61-.86 8.2-3.52 8.2-3.52l-4.61-1.17 1.34-4.32S42 33.11 40.6 33.79c-1.16.57-4.89 1.62-4.89 1.62l-7.13 6.03Zm1.81-5.69s3.24-1.82 3.91-2.82c.36-.54.52-2.24-.01-2.58" class="cls-15"/><path d="M34.31 32.94s1.26-.7 1.55-.49c.24.18.68 1.31 1.08 2.48.27.8.53 1.51.74 2.84.13.8-1.58 1.52-2.67 1.92-2.13.77-4.28.96-7.32 1.65-.4.09-.84-1.26-.84-1.26" class="cls-15"/><path d="M36.86 34.72s1.9-.01 5.19-1.9c2.51-1.44 2.35-1.4 2.35-1.4s-.48 1.46-.68 1.95c-.24.6-1.09 2.42-1.09 2.42s1.27.51 2.31.74c.74.16 3.01.34 3.01.34s-2.34 1.66-8.4 3.5c-8.71 2.63-11.93.7-11.93.7s1.76-.38 3.46-1.14 3.39-1.84 4.67-2.25c.96-.3 1.93.09 1.93.09m-18.69 6.9-3.65 3.15s-2.3-.02-2.51-.61" class="cls-15"/><path d="M15.33 47.82s-1.06.98-.83 1.39c.25.46 1.11.96 2.16 1.62.71.45 1.35.87 2.59 1.38.75.31 1.85-1.18 2.49-2.15 1.25-1.89 1.92-3.94 3.31-6.74.18-.37-1.03-1.11-1.03-1.11" class="cls-15"/><path d="M16.48 50.72s-.46 1.85-3.06 4.6c-1.99 2.1-1.39 1.78-1.39 1.78s1.53-.13 2.06-.21c.64-.1 2.61-.49 2.61-.49s.2 1.36.18 2.42c-.01.76-.37 3.01-.37 3.01s1.64-1.71 4.83-7.18c4.59-7.86 3.45-11.44 3.45-11.44s-.78 1.62-1.92 3.09-2.71 2.72-3.27 4.02c-.4.93-.36 1.9-.36 1.9" class="cls-15"/><path fill="none" stroke="#fff" stroke-linecap="round" stroke-linejoin="round" d="M11.7 41.72s1.36.43 3.5.05c1.55-.28 5.42-.59 6.78-1.69.41-.33.46-.89 1.35-1.6 1.06-.85 1.91-.89 1.91-.89"/><path d="M25.05 43.32s.73-.28 1.5-.89c.8-.63 1.13-1.1 1.13-1.1" class="cls-15"/><path d="m19.21 52.25-4.75-3.01.35-1.48-2.09-.95-1.03-3.04-.04-2.01 4.68-1.71 4.47.02 1.59.33 2.36 2.83-5.54 9.02zM37.6 37.73l-1.81-5.32-1.42.2-.54-2.46-2.73-1.7-1.94-.51-2.75 4.15-1.02 4.35-.05 1.62 2.21 2.97 10.05-3.3z" class="cls-29"/><path d="m22.05320391 39.90755278 2.9437225-2.32314395 2.89308861 3.66591575-2.9437225 2.32314396zM24.87 44.11s-.75 5.06-3.34 10.17c-1.68 3.31-4.7 6.77-4.7 6.77l-.13-4.66-4.67.7s1.62-1.87 2.61-3.07c.82-.99 2.72-4.38 2.72-4.38l7.52-5.54Zm3.71-2.67s5.1.45 10.66-.89c3.61-.86 8.2-3.52 8.2-3.52l-4.61-1.17 1.34-4.32s-2.18 1.56-3.58 2.24c-1.16.57-4.89 1.62-4.89 1.62l-7.13 6.03Z" class="cls-29"/><path d="M25.23 37.59c-.07-2.59 1.79-8.13 3.99-9.62.8-.54 5.07 2.38 5.07 2.38s-.62.81-1.54 2.08c-1.02 1.41-2.36 3.32-2.86 3.95-.94 1.2-3.07 3.69-3.07 3.69s-1.58-1.81-1.6-2.48Z" class="cls-20"/><path d="m30.39 35.75 3.91-2.82s.52-2.24-.01-2.58m.01 2.58s1.26-.7 1.55-.49c.24.18.68 1.31 1.08 2.48.27.8.53 1.51.74 2.84.13.8-1.58 1.52-2.67 1.92-2.13.77-4.28.96-7.32 1.65-.4.09-.84-1.26-.84-1.26" class="cls-20"/><path d="M36.85 34.71s1.9-.01 5.19-1.9c2.51-1.44 2.35-1.4 2.35-1.4s-.48 1.46-.68 1.95c-.24.6-1.09 2.42-1.09 2.42s1.27.51 2.31.74c.74.16 3.01.34 3.01.34s-2.34 1.66-8.4 3.5c-8.71 2.63-11.93.7-11.93.7s1.76-.38 3.46-1.14c1.7-.77 3.39-1.84 4.67-2.25.96-.3 1.93.09 1.93.09m-12.44-.17s2.59-4.76 3.22-6.21c.87-2 .77-3.41.77-3.41m-7.25 12.11c-2.51-.67-8.32-.15-10.28 1.64-.71.65 1.13 5.49 1.13 5.49s.94-.41 2.38-1.01c1.61-.66 3.78-1.53 4.51-1.86 1.39-.63 4.3-2.13 4.3-2.13s-1.39-1.96-2.04-2.13Zm-2.99 4.59-3.65 3.15s-2.3-.02-2.51-.61m2.51.61s-1.06.98-.83 1.39c.25.46 1.11.96 2.16 1.62.71.45 1.35.87 2.59 1.38.75.31 1.85-1.18 2.49-2.15 1.25-1.89 1.92-3.94 3.31-6.74.18-.37-1.03-1.11-1.03-1.11" class="cls-20"/><path d="M16.47 50.71s-.46 1.85-3.06 4.6c-1.99 2.1-1.39 1.78-1.39 1.78s1.53-.13 2.06-.21c.64-.1 2.61-.49 2.61-.49s.2 1.36.18 2.42c-.01.76-.37 3.01-.37 3.01s1.64-1.71 4.83-7.18c4.59-7.86 3.45-11.44 3.45-11.44s-.78 1.62-1.92 3.09c-1.14 1.47-2.71 2.72-3.27 4.02-.4.93-.36 1.9-.36 1.9m-7.54-10.49s1.36.43 3.5.05c1.55-.28 6.78-1.69 6.78-1.69s.46-.89 1.35-1.6c1.06-.85 1.91-.89 1.91-.89m-.19 5.73s.73-.28 1.5-.89c.8-.63 1.13-1.1 1.13-1.1" class="cls-20"/><path d="m31.3 34.89 2.88-2.12.19-2.23M17.94 45.26l-2.75 2.45-2.16-.37m10.75-1.95s-2.67 2.57-3.32 3.61c-.42.68-1.33 3.1-.97 3.13.88.07 2.31-2.4 2.8-3.13.54-.81 1.5-3.61 1.5-3.61Zm6.08-4.72s3.75-2.25 4.92-2.64c.63-.21 2.69-.36 2.63-.01-.14.88-2.24 1.48-3.06 1.78-.92.34-4.49.86-4.49.86Z" class="cls-35"/><path d="M50.66 71.5c.26.16.56.65.68.93 1.1 2.67 3.32 8.17 4.48 10.99.14.34.11 1.16-.08 1.47-1.14 1.87-6.02 3.51-8.18 3.14-.34-.06-.85-.64-.98-.96-1.13-2.77-3.3-8.23-4.4-10.95-.11-.28-.07-.89-.04-1.19.07-.77.49-2.02 3.45-3.22s3.82-.99 5.08-.22Z" class="cls-16"/><path d="M42.13 74.93c.3.75 3.6-.03 4.7-.47s4.04-2.05 3.69-2.9" class="cls-16"/><path d="m52.93 86.68-2.95.91s.5-4.46-.09-5.91c-.67-1.65-1.98-2.47-2.58-4.05-.41-1.06-.13-3-.13-3l2.06-1.09s-.82 2.35.1 3.92c1.37 2.35 2.56 2.78 3.38 5.56.56 1.87.22 3.67.22 3.67Z" class="cls-34"/><ellipse cx="45.8" cy="73.23" fill="none" stroke="#f4bad4" stroke-miterlimit="10" stroke-width=".5" rx="1.24" ry=".55" transform="rotate(-21.92 45.79872226 73.2122179)"/><path d="M49.12 71.96c.09.22-.36.6-1.01.86s-1.16.47-1.32.08.36-.6 1.01-.86 1.23-.29 1.32-.08Z" class="cls-34"/><path d="m41.07 72.45-1.45-1.16m.65 2.35-1.71-.71m3.63-1.38-.99-1.57" class="cls-16"/></g></svg>